<?xml version="1.0" encoding="UTF-8"?>
<svg version="1.1" xmlns="http://www.w3.org/2000/svg" width="1024" height="1024">
<path d="M0 0 C1.06708191 -0.02716095 2.13416382 -0.0543219 3.23358154 -0.08230591 C4.57859238 -0.13202797 4.57859238 -0.13202797 5.95077515 -0.18275452 C9.07843089 0.21563818 10.24459528 0.68765814 12.30145264 3.1166687 C12.71218509 6.11802742 12.86542129 8.75977883 12.84735107 11.76535034 C12.85768875 12.65061401 12.86802643 13.53587769 12.87867737 14.44796753 C12.90828337 17.39110248 12.90961046 20.33355207 12.91082764 23.27682495 C12.92582942 25.34018743 12.94256073 27.40353799 12.9609375 29.46687317 C13.00477589 34.92643728 13.02461832 40.38584138 13.03967285 45.84555054 C13.05894673 51.29995801 13.10109721 56.75417935 13.14129639 62.20846558 C13.20704278 71.48121442 13.24487491 80.7537664 13.26752472 90.02671242 C13.28211184 94.97101699 13.31582278 99.91400375 13.39031601 104.8577776 C13.41916049 106.77486056 13.44167921 108.6920356 13.46386719 110.60920715 C13.48994322 112.77325371 13.52697163 114.9372129 13.57800293 117.10081482 C13.58632141 118.01024338 13.59463989 118.91967194 13.60321045 119.85665894 C13.61732971 120.61873154 13.63144897 121.38080414 13.64599609 122.16596985 C13.30145264 124.1166687 13.30145264 124.1166687 12.1971283 125.85986328 C9.36300246 127.73884753 7.04718548 127.48824579 3.66888428 127.48556519 C2.99831497 127.48933167 2.32774567 127.49309814 1.63685608 127.49697876 C0.17840535 127.50341634 -1.28008733 127.50307636 -2.73853874 127.49679375 C-5.06749398 127.48764817 -7.39564946 127.49795492 -9.7245636 127.51341248 C-16.34730733 127.55335817 -22.96999025 127.55475164 -29.59283447 127.55245972 C-58.65255774 127.55815443 -84.14601598 128.83665927 -108.69854736 146.1166687 C-109.38690674 146.58588745 -110.07526611 147.0551062 -110.78448486 147.5385437 C-124.90507011 158.27814375 -132.45449911 177.53110679 -135.23614502 194.37130737 C-137.1254306 208.40849689 -137.14062461 222.49074905 -137.29943848 236.63412476 C-137.34007194 240.08087103 -137.39088696 243.52746744 -137.44073486 246.97409058 C-137.53584198 253.68818533 -137.62113468 260.40234782 -137.69854736 267.1166687 C-136.93248484 267.11482512 -136.16642231 267.11298153 -135.37714577 267.11108208 C-116.75831037 267.06696068 -98.13948538 267.03384025 -79.5206089 267.01304436 C-70.51675161 267.00272095 -61.51292917 266.98864036 -52.50909424 266.96578979 C-44.66360749 266.94588841 -36.81814596 266.93296001 -28.97263467 266.92849171 C-24.81645802 266.9258788 -20.66035355 266.91971538 -16.50419998 266.90520859 C-12.59563225 266.89167597 -8.68716673 266.88743725 -4.7785778 266.89045334 C-3.34101113 266.88990123 -1.90344118 266.8858981 -0.4658947 266.87825775 C1.49082111 266.86836459 3.44759125 266.87187802 5.40432739 266.87615967 C6.50126104 266.87431608 7.59819469 266.8724725 8.72836876 266.87057304 C11.30145264 267.1166687 11.30145264 267.1166687 13.30145264 269.1166687 C13.55313492 271.21564484 13.55313492 271.21564484 13.55541992 273.86141968 C13.56105957 274.86256302 13.56669922 275.86370636 13.57250977 276.89518738 C13.56643707 278.54879524 13.56643707 278.54879524 13.5602417 280.23580933 C13.56549866 281.97244087 13.56549866 281.97244087 13.57086182 283.74415588 C13.57969447 287.58713707 13.57382448 291.42993551 13.56707764 295.2729187 C13.56842384 297.93328075 13.57036066 300.59363716 13.57287598 303.2539978 C13.57651723 308.83600866 13.57171238 314.41796665 13.56219482 319.99996948 C13.55130993 326.45859785 13.5548354 332.91709996 13.56584764 339.37572527 C13.57491601 344.91546477 13.57620801 350.4551662 13.5709703 355.99491072 C13.5678481 359.30597328 13.56823028 362.61696329 13.57404327 365.92802429 C13.57909908 369.61794683 13.57141141 373.30762391 13.5602417 376.99752808 C13.56429016 378.09993332 13.56833862 379.20233856 13.57250977 380.33815002 C13.56405029 381.83986504 13.56405029 381.83986504 13.55541992 383.37191772 C13.55466587 384.24502342 13.55391182 385.11812912 13.55313492 386.01769257 C13.30145264 388.1166687 13.30145264 388.1166687 11.30145264 390.1166687 C8.72836876 390.36276436 8.72836876 390.36276436 5.40432739 390.35717773 C3.51963997 390.36130173 3.51963997 390.36130173 1.59687805 390.36550903 C0.19680692 390.35843027 -1.20326326 390.35116065 -2.60333252 390.34371948 C-4.07158907 390.34315559 -5.53984619 390.3434715 -7.00810242 390.34460449 C-11.00170735 390.34517986 -14.99519289 390.33339591 -18.98877001 390.31945658 C-23.1594689 390.30697977 -27.33017033 390.30578113 -31.50088501 390.30340576 C-39.4021472 390.297182 -47.30335424 390.2807591 -55.20459211 390.26070678 C-64.19841368 390.23837561 -73.19223784 390.22736136 -82.18608022 390.21731591 C-100.69026723 390.19639362 -119.19440287 390.16120029 -137.69854736 390.1166687 C-137.69762557 391.00118399 -137.69670378 391.88569927 -137.69575405 392.79701805 C-137.67336746 414.63171721 -137.65697827 436.46641432 -137.64673519 458.30112267 C-137.64164616 468.86154986 -137.63471369 479.42196916 -137.62310791 489.98239136 C-137.53666411 570.73996785 -137.53666411 570.73996785 -137.96627998 601.7603035 C-137.99776501 604.07795653 -138.02535498 606.39566717 -138.04826164 608.71342087 C-138.71607998 671.95432514 -155.68855516 737.96025762 -195.69854736 788.1166687 C-196.41526611 789.02545776 -197.13198486 789.93424683 -197.87042236 790.87057495 C-209.71060548 805.62881739 -222.78593284 819.4459269 -237.69854736 831.1166687 C-238.74047198 831.9496795 -239.78213099 832.78302259 -240.82354736 833.6166687 C-248.11158659 839.3967997 -255.65384266 844.42392429 -263.69854736 849.1166687 C-264.92262398 849.85475382 -266.14657861 850.59304128 -267.37042236 851.33151245 C-284.01243082 861.20833914 -301.97711496 867.44527337 -320.69854736 872.1166687 C-321.87175537 872.41033325 -321.87175537 872.41033325 -323.06866455 872.70993042 C-344.90386995 877.99561968 -367.54874036 879.36938519 -389.94854736 879.4916687 C-390.67190277 879.49952393 -391.39525818 879.50737915 -392.14053345 879.51547241 C-394.18637875 879.53290203 -396.23082025 879.52825417 -398.27667236 879.5151062 C-399.44617432 879.51172241 -400.61567627 879.50833862 -401.82061768 879.50485229 C-405.07911437 879.06533671 -405.73386518 878.64713622 -407.69854736 876.1166687 C-408.0788641 874.21257877 -408.0788641 874.21257877 -408.08622742 872.0243988 C-408.10108437 870.7773819 -408.10108437 870.7773819 -408.11624146 869.50517273 C-408.11173981 868.59651962 -408.10723816 867.68786652 -408.1026001 866.75167847 C-408.11289497 865.31225388 -408.11289497 865.31225388 -408.12339783 863.84375 C-408.14173034 860.66504202 -408.13781903 857.48682456 -408.13214111 854.30807495 C-408.13669989 852.10233905 -408.14200454 849.89660458 -408.14802551 847.69087219 C-408.15696937 843.06476069 -408.15451903 838.43882171 -408.14459229 833.81271362 C-408.13310248 827.87950101 -408.15330821 821.94688352 -408.18250942 816.01374912 C-408.20084136 811.45758775 -408.20058492 806.90156977 -408.1948719 802.34538078 C-408.19471831 800.1576752 -408.20079364 797.96996012 -408.21316338 795.78228951 C-408.22801411 792.72482936 -408.21743937 789.66847851 -408.20025635 786.61105347 C-408.20992432 785.70442459 -408.21959229 784.79779572 -408.22955322 783.86369324 C-408.15722577 777.72863686 -408.15722577 777.72863686 -405.80018616 774.58387756 C-403.61624284 773.05920977 -401.82809517 772.22224526 -399.27667236 771.4760437 C-397.99723755 771.08340332 -397.99723755 771.08340332 -396.69195557 770.68283081 C-395.33396851 770.27883057 -395.33396851 770.27883057 -393.94854736 769.8666687 C-384.29350042 766.82370961 -375.55235462 762.99529719 -366.69854736 758.1166687 C-365.76784424 757.61393433 -364.83714111 757.11119995 -363.87823486 756.5932312 C-357.22702245 752.81934579 -351.51641861 748.05081267 -345.69854736 743.1166687 C-344.6157471 742.26182638 -343.53252732 741.40751462 -342.44854736 740.5541687 C-339.51065692 737.95012944 -337.00780959 735.18463072 -334.47198486 732.1947937 C-333.35844218 730.88993752 -332.22076218 729.60491774 -331.05010986 728.3510437 C-320.75441164 717.23362309 -313.27234308 703.67255076 -306.69854736 690.1166687 C-306.39352295 689.49227905 -306.08849854 688.8678894 -305.77423096 688.22457886 C-294.84299763 665.29639308 -289.46841804 639.18960208 -286.69854736 614.1166687 C-286.58962158 613.14600464 -286.4806958 612.17534058 -286.36846924 611.17526245 C-285.71094519 605.1624325 -285.14911522 599.14837122 -284.69854736 593.1166687 C-284.61496255 592.01302475 -284.53137774 590.9093808 -284.44526005 589.77229309 C-283.7131678 579.24448143 -283.5619565 568.77636811 -283.58502197 558.2260437 C-283.58532912 556.36180626 -283.58519343 554.49756869 -283.58465672 552.6333313 C-283.58443316 547.69079589 -283.59018216 542.74828524 -283.59726715 537.80575562 C-283.60300907 533.14897595 -283.60323281 528.49220196 -283.60394287 523.8354187 C-283.60916713 510.26249882 -283.6231284 496.68958344 -283.63604736 483.1166687 C-283.65667236 452.7566687 -283.67729736 422.3966687 -283.69854736 391.1166687 C-345.40854736 390.7866687 -407.11854736 390.4566687 -470.69854736 390.1166687 C-470.69331055 404.89440063 -470.68807373 419.67213257 -470.68267822 434.89767456 C-470.6719556 466.48097202 -470.66252741 498.06426913 -470.65620422 529.64756775 C-470.65599714 530.67928854 -470.65599714 530.67928854 -470.65578587 531.73185218 C-470.65279331 546.67808517 -470.65002308 561.6243182 -470.64748203 576.57055127 C-470.64623464 583.89964446 -470.6449381 591.22873764 -470.64361572 598.55783081 C-470.64348496 599.28718329 -470.6433542 600.01653576 -470.64321948 600.76798983 C-470.6389543 624.42988433 -470.63144013 648.09177645 -470.62225014 671.7536695 C-470.6128273 696.05910308 -470.60666419 720.36453533 -470.60463237 744.6699707 C-470.6043442 748.09897118 -470.60401856 751.52797165 -470.60367012 754.95697212 C-470.60356899 755.96933714 -470.60356899 755.96933714 -470.60346581 757.00215398 C-470.60228177 767.88844469 -470.59763747 778.77473134 -470.59171533 789.66102039 C-470.58584212 800.59202269 -470.5836571 811.52302154 -470.58504599 822.45402544 C-470.5856897 828.38210905 -470.58466814 834.31018067 -470.57934189 840.23826218 C-470.57450964 845.65574233 -470.57420755 851.07320234 -470.57764847 856.49068338 C-470.57807434 858.45973298 -470.57677714 860.42878378 -470.57366418 862.39783096 C-470.56970311 865.05602729 -470.57178215 867.71414905 -470.57549953 870.37234402 C-470.57155901 871.54278436 -470.57155901 871.54278436 -470.56753889 872.73686996 C-470.58440157 878.0025229 -470.58440157 878.0025229 -471.69854736 879.1166687 C-473.53922715 879.21970166 -475.38389372 879.25188636 -477.22744751 879.2571106 C-478.42771072 879.26282074 -479.62797394 879.26853088 -480.86460876 879.27441406 C-482.20687856 879.27565955 -483.54914847 879.27678462 -484.89141846 879.27780151 C-486.29554882 879.28242738 -487.69967792 879.28745172 -489.10380554 879.29284668 C-492.92820546 879.30599525 -496.75258781 879.31242043 -500.57700682 879.31685734 C-502.96421898 879.31978418 -505.35142629 879.32388824 -507.73863602 879.32836151 C-515.20146169 879.34204306 -522.66427635 879.35170643 -530.1271137 879.3555634 C-538.75333998 879.36004561 -547.37940791 879.37759819 -556.00558603 879.406564 C-562.66547389 879.42815389 -569.32531712 879.43826624 -575.98523962 879.43960452 C-579.96652339 879.44065452 -583.94765844 879.44660323 -587.92890549 879.46442413 C-591.67338678 879.48085842 -595.41760686 879.48308316 -599.16211128 879.47428513 C-600.53798304 879.47351224 -601.91386858 879.47789051 -603.28970528 879.48774338 C-605.16498792 879.50038735 -607.04037466 879.49282199 -608.91567993 879.48416138 C-610.4913804 879.48636122 -610.4913804 879.48636122 -612.09891319 879.4886055 C-614.69854736 879.1166687 -614.69854736 879.1166687 -616.33795303 878.09087175 C-618.46316744 875.00721583 -618.10459511 871.77170712 -618.06769085 868.1574831 C-618.07115238 867.33347196 -618.07461392 866.50946081 -618.07818034 865.66047964 C-618.08617596 862.87529589 -618.07261715 860.09062341 -618.05931091 857.3054657 C-618.06061809 855.29822231 -618.06324288 853.29097942 -618.06707841 851.28373927 C-618.07381264 845.74928747 -618.06175043 840.21500858 -618.04674423 834.68057883 C-618.03383033 828.71943059 -618.03817002 822.75829269 -618.04045105 816.7971344 C-618.04202673 806.46282049 -618.03269109 796.12855922 -618.01573753 785.79426003 C-617.99799841 774.95336451 -617.98644212 764.11249158 -617.98317909 753.27158165 C-617.98297287 752.59802333 -617.98276665 751.92446502 -617.98255419 751.23049584 C-617.98153921 747.80996091 -617.98063505 744.38942596 -617.97977356 740.96889099 C-617.97346902 716.72882819 -617.95324775 692.48879493 -617.92486572 668.24874878 C-617.89732139 644.69699257 -617.87606616 621.14524443 -617.86334229 597.59347534 C-617.86294771 596.86775875 -617.86255313 596.14204215 -617.86214659 595.39433415 C-617.8581911 588.1065207 -617.85436365 580.8187072 -617.85063001 573.53089364 C-617.84302097 558.68421532 -617.83455721 543.83753753 -617.82557678 528.99085999 C-617.82495898 527.96687637 -617.82495898 527.96687637 -617.82432869 526.92220621 C-617.79671752 481.3203479 -617.74911854 435.7185067 -617.69854736 390.1166687 C-618.99702606 390.12110992 -620.29550476 390.12555115 -621.6333313 390.13012695 C-633.84709865 390.17060211 -646.06085246 390.20061892 -658.27467155 390.22029305 C-664.55450095 390.23074758 -670.83427638 390.24493716 -677.11407471 390.26754761 C-683.17000995 390.28921654 -689.22589316 390.30122474 -695.28186417 390.30642319 C-697.59682154 390.31012967 -699.91177595 390.31736707 -702.22671127 390.32812881 C-705.45941155 390.34256465 -708.69189447 390.34464997 -711.92462158 390.34371948 C-712.88990784 390.35091003 -713.85519409 390.35810059 -714.84973145 390.36550903 C-716.16646347 390.36138504 -716.16646347 390.36138504 -717.50979614 390.35717773 C-718.65742841 390.35994311 -718.65742841 390.35994311 -719.82824516 390.36276436 C-721.69854736 390.1166687 -721.69854736 390.1166687 -723.69854736 388.1166687 C-723.94743633 385.99928188 -723.94743633 385.99928188 -723.94578552 383.32722473 C-723.94998001 382.31622208 -723.9541745 381.30521942 -723.95849609 380.26358032 C-723.95287659 379.1502533 -723.94725708 378.03692627 -723.94146729 376.88986206 C-723.94336563 375.72074783 -723.94526398 374.55163361 -723.94721985 373.34709167 C-723.95029551 370.13643898 -723.94440533 366.92595496 -723.93426681 363.7153213 C-723.92549798 360.36054432 -723.92724351 357.00577183 -723.92762756 353.65098572 C-723.9266905 348.01769687 -723.91800018 342.38446183 -723.90435791 336.75119019 C-723.88862432 330.23008716 -723.88336004 323.70904306 -723.88409346 317.18792242 C-723.88470293 310.9237765 -723.8796054 304.65964985 -723.87130165 298.39550972 C-723.86776314 295.72526461 -723.8659376 293.05502632 -723.86540794 290.38477898 C-723.86325197 286.66118235 -723.85452413 282.93766133 -723.84381104 279.21408081 C-723.84426422 278.09872955 -723.84471741 276.9833783 -723.84518433 275.83422852 C-723.83878685 274.32195427 -723.83878685 274.32195427 -723.83226013 272.77912903 C-723.83058429 271.89772719 -723.82890844 271.01632536 -723.82718182 270.10821438 C-723.69854736 268.1166687 -723.69854736 268.1166687 -722.69854736 267.1166687 C-721.3324641 267.02131657 -719.96149281 266.994782 -718.59208679 266.99641418 C-717.70722595 266.99503952 -716.82236511 266.99366486 -715.91069031 266.99224854 C-714.93245804 266.99584381 -713.95422577 266.99943909 -712.9463501 267.00314331 C-711.92207916 267.00299728 -710.89780823 267.00285126 -709.84249878 267.00270081 C-706.43902507 267.00340042 -703.03560532 267.01119507 -699.63214111 267.01901245 C-697.27944468 267.02087646 -694.92674786 267.02230044 -692.5740509 267.02330017 C-686.36798032 267.02712671 -680.16193296 267.03695815 -673.95587158 267.04800415 C-667.62856358 267.05821536 -661.30125184 267.06279717 -654.97393799 267.06784058 C-642.54879755 267.0785803 -630.12367438 267.09565834 -617.69854736 267.1166687 C-617.70100212 265.42695702 -617.70100212 265.42695702 -617.70350647 263.70310974 C-617.76182259 219.61527492 -617.76182259 219.61527492 -617.38604736 204.0541687 C-617.36554321 203.19318573 -617.34503906 202.33220276 -617.32391357 201.44512939 C-616.97113165 187.5342389 -616.17374326 173.83504272 -613.69854736 160.1166687 C-613.52839111 159.158573 -613.35823486 158.20047729 -613.18292236 157.21334839 C-610.68674646 143.61364719 -606.93274508 130.90052152 -601.69854736 118.1166687 C-601.4281665 117.43056519 -601.15778564 116.74446167 -600.87921143 116.03756714 C-592.3159389 94.33066702 -578.79334169 75.83609929 -562.69854736 59.1166687 C-562.22094971 58.61715698 -561.74335205 58.11764526 -561.25128174 57.60299683 C-525.57235041 20.44361192 -474.95170519 2.13036162 -424.07437515 1.0615406 C-416.99091351 0.97859479 -409.90733112 1.00164613 -402.82354736 1.01901245 C-400.55955029 1.02088185 -398.2955528 1.02230328 -396.03155518 1.02330017 C-390.12655483 1.02708426 -384.22157982 1.03687854 -378.31658936 1.04800415 C-372.26943301 1.05830751 -366.22227249 1.06281675 -360.17510986 1.06784058 C-348.34957802 1.07850526 -336.52406481 1.09553116 -324.69854736 1.1166687 C-322.871046 4.24896073 -322.44628436 6.53035907 -322.43785095 10.13989258 C-322.43076614 11.1521994 -322.42368134 12.16450623 -322.41638184 13.20748901 C-322.41885925 14.31205444 -322.42133667 15.41661987 -322.42388916 16.55465698 C-322.41622276 18.30635696 -322.41622276 18.30635696 -322.40840149 20.09344482 C-322.39448741 23.95800889 -322.39546323 27.82239505 -322.39776611 31.6869812 C-322.39486257 33.68986669 -322.39195467 35.69275226 -322.38835937 37.69563663 C-322.37727006 43.98980746 -322.37682443 50.28391861 -322.38287354 56.57809448 C-322.38892269 63.07656837 -322.37657732 69.57482625 -322.35530347 76.07326329 C-322.33771275 81.6512624 -322.33168183 87.22919259 -322.33494121 92.80721843 C-322.33675726 96.13953437 -322.33278082 99.47166107 -322.32022667 102.80395889 C-322.30795771 106.51530114 -322.31459597 110.22613601 -322.32623291 113.93746948 C-322.31858917 115.04608337 -322.31094543 116.15469727 -322.30307007 117.29690552 C-322.31008438 118.30357269 -322.31709869 119.31023987 -322.32432556 120.34741211 C-322.32407395 121.66423572 -322.32407395 121.66423572 -322.32381725 123.00766182 C-322.50930866 124.05162023 -322.50930866 124.05162023 -322.69854736 125.1166687 C-326.25554376 127.48799963 -327.79130949 127.37222153 -332.01153564 127.38790894 C-333.31784943 127.39809555 -334.62416321 127.40828217 -335.97006226 127.41877747 C-336.66946049 127.41971846 -337.36885872 127.42065945 -338.08945084 127.42162895 C-340.29566323 127.42530714 -342.50143174 127.44208259 -344.70755005 127.46238708 C-350.98099381 127.51759273 -357.25450783 127.54813959 -363.52813721 127.57296753 C-367.3702698 127.58908537 -371.21210003 127.61956941 -375.05407333 127.65773201 C-376.50251865 127.66919672 -377.95101874 127.67531069 -379.39950943 127.67541313 C-405.56538794 127.67792975 -429.94802346 134.03670427 -449.32354736 152.3666687 C-478.27718492 182.17781817 -470.17958798 230.27055255 -470.69854736 267.1166687 C-408.65854736 267.1166687 -346.61854736 267.1166687 -282.69854736 267.1166687 C-282.69854736 242.6966687 -282.69854736 218.2766687 -282.69854736 193.1166687 C-280.27840057 160.44468692 -280.27840057 160.44468692 -276.69854736 146.1166687 C-276.48714111 145.26411499 -276.27573486 144.41156128 -276.05792236 143.53317261 C-263.92402553 95.72949909 -234.06811312 55.55188632 -191.69854736 30.1166687 C-168.59890187 16.71440372 -144.42921174 8.24219682 -118.13604736 3.8666687 C-117.16828369 3.70328003 -116.20052002 3.53989136 -115.20343018 3.37155151 C-109.32477963 2.45770097 -103.45893831 1.91088232 -97.52056885 1.5866394 C-96.73907911 1.54390176 -95.95758938 1.50116411 -95.15241814 1.45713139 C-86.10073643 0.99364016 -77.04931108 0.88845337 -67.98760986 0.80026245 C-66.15877924 0.77959837 -64.32995236 0.75860021 -62.50112915 0.73728943 C-57.74173284 0.68279215 -52.98229823 0.63312094 -48.22283936 0.58444214 C-44.35127336 0.54401654 -40.47975061 0.50009858 -36.60822487 0.45600796 C-31.94303251 0.40293985 -27.27782415 0.35136313 -22.61260986 0.30026245 C-21.74173359 0.29070463 -20.87085732 0.28114681 -19.97359085 0.27129936 C-15.94663613 0.22771698 -11.91979397 0.18838022 -7.8927002 0.16033936 C-5.25808423 0.14007552 -2.63427657 0.08309685 0 0 Z " fill="#292826" transform="translate(856.6985473632813,73.88333129882813)"/>
<path d="M0 0 C1.1569116 -0.00233999 1.1569116 -0.00233999 2.33719516 -0.00472724 C4.91742291 -0.00871082 7.49759165 -0.00555788 10.07781982 -0.00241089 C11.92912836 -0.00376605 13.78043663 -0.00554664 15.63174438 -0.00772095 C20.65615532 -0.01228026 25.68054572 -0.01051221 30.70495701 -0.00734186 C35.95756142 -0.00481204 41.21016407 -0.0071574 46.46276855 -0.00872803 C55.27944251 -0.01054726 64.09610808 -0.00814919 72.91278076 -0.00338745 C83.11993302 0.00206144 93.32706533 0.00028698 103.53421712 -0.00521386 C112.2892522 -0.00974396 121.04428125 -0.01039625 129.79931712 -0.00777519 C135.0323855 -0.00621271 140.26544448 -0.00601798 145.49851227 -0.00931168 C150.41339687 -0.01218912 155.32825557 -0.01021705 160.24313736 -0.00441742 C162.05201042 -0.00308943 163.86088563 -0.00348459 165.66975784 -0.00568008 C168.12801303 -0.0083899 170.58618386 -0.00501265 173.04443359 0 C173.76960843 -0.00223072 174.49478327 -0.00446144 175.24193311 -0.00675976 C180.1540992 0.01283333 180.1540992 0.01283333 181.26824951 1.12698364 C181.36601971 3.69416561 181.39819967 6.2344228 181.38850403 8.80204773 C181.38978567 10.02226975 181.38978567 10.02226975 181.39109319 11.26714271 C181.39275049 14.01414606 181.38722258 16.76108937 181.3817749 19.50808716 C181.38149306 21.46880085 181.38165071 23.42951464 181.38221741 25.39022827 C181.38250549 30.73091698 181.37660703 36.07158345 181.36964345 41.41226697 C181.36341169 46.9870068 181.36280626 52.56174709 181.36161804 58.13648987 C181.3585042 68.70104456 181.3502901 79.26558895 181.34026855 89.8301391 C181.32910906 101.85411594 181.32359738 113.87809326 181.31857312 125.90207398 C181.30810753 150.64371625 181.29050706 175.38534937 181.26824951 200.12698364 C180.93824951 200.12698364 180.60824951 200.12698364 180.26824951 200.12698364 C179.93824951 135.11698364 179.60824951 70.10698364 179.26824951 3.12698364 C117.22824951 3.12698364 55.18824951 3.12698364 -8.73175049 3.12698364 C-9.06175049 163.50698364 -9.39175049 323.88698364 -9.73175049 489.12698364 C-10.72175049 488.79698364 -11.71175049 488.46698364 -12.73175049 488.12698364 C-12.73175049 327.41698364 -12.73175049 166.70698364 -12.73175049 1.12698364 C-8.3480283 0.2502392 -4.42294485 -0.01377498 0 0 Z " fill="#181917" transform="translate(394.73175048828125,460.8730163574219)"/>
<path d="M0 0 C0.33 0 0.66 0 1 0 C1 30.00185179 0.44773896 60.00148935 0 90 C-64.02 90 -128.04 90 -194 90 C-194 9.25 -194 9.25 -189 3 C-189.33 30.39 -189.66 57.78 -190 86 C-127.96 86 -65.92 86 -2 86 C-2 61.58 -2 37.16 -2 12 C-1 2 -1 2 0 0 Z " fill="#51504E" transform="translate(576,255)"/>
<path d="M0 0 C2 2 2 2 2.24609566 3.99524117 C2.24425207 4.81932409 2.24240849 5.64340702 2.24050903 6.49246216 C2.24325836 7.43759674 2.24600769 8.38273132 2.24884033 9.35650635 C2.24164978 10.39659851 2.23445923 11.43669067 2.22705078 12.50830078 C2.22734283 13.60099274 2.22763489 14.69368469 2.22793579 15.81948853 C2.22653825 19.44484292 2.21095699 23.06999385 2.1953125 26.6953125 C2.19158388 29.20352059 2.1887362 31.71173012 2.18673706 34.21994019 C2.17987119 40.15562286 2.16409528 46.09123984 2.14403808 52.02688873 C2.11951013 59.44629818 2.1087526 66.86571665 2.09765625 74.28515625 C2.07618515 87.52347486 2.04241739 100.76173279 2 114 C3.30069931 113.99777939 4.60139862 113.99555878 5.94151306 113.99327087 C18.17031765 113.9730419 30.39911887 113.95802904 42.62793636 113.94818783 C48.91562024 113.94295838 55.20329066 113.93585961 61.4909668 113.92456055 C67.55337723 113.91373386 73.61577469 113.90772363 79.67819405 113.90512276 C81.99676277 113.90326811 84.31533074 113.89964675 86.63389397 113.89426994 C89.86914508 113.88706242 93.10434183 113.88600894 96.33959961 113.88647461 C97.30848114 113.88287933 98.27736267 113.87928406 99.27560425 113.87557983 C100.59027428 113.87764183 100.59027428 113.87764183 101.9315033 113.87974548 C103.08051825 113.87836279 103.08051825 113.87836279 104.25274563 113.87695217 C106 114 106 114 107 115 C107.10786927 116.36030525 107.14682606 117.72613983 107.15821838 119.09066772 C107.1680072 119.98550401 107.17779602 120.88034029 107.18788147 121.80229282 C107.19363693 122.80387897 107.1993924 123.80546511 107.20532227 124.83740234 C107.21522186 125.90175727 107.22512146 126.96611219 107.23532104 128.0627203 C107.2677119 131.73710249 107.29226379 135.4114923 107.31640625 139.0859375 C107.32642731 140.42153762 107.33664841 141.75713625 107.34705925 143.09273338 C107.41804383 152.20004227 107.47739199 161.30739478 107.53222656 170.414814 C107.55711769 174.53667908 107.58385378 178.65852976 107.61115968 182.78037947 C107.97953135 238.54740701 108.0349942 294.31414253 108.02768216 350.08213818 C108.02734429 352.69503251 108.02705238 355.30792685 108.02676892 357.92082119 C108.0227598 393.17177801 108.00972265 428.42272436 107.97707301 463.67366689 C107.96454269 477.25105633 107.95501269 490.82844591 107.94748467 504.40583903 C107.94243038 513.16814845 107.93403022 521.93044249 107.92127619 530.69274414 C107.91288337 536.61838205 107.908013 542.54401602 107.90595539 548.46965951 C107.90464625 551.87025432 107.90167199 555.27082668 107.89426243 558.67141414 C107.88707359 562.34545562 107.88600265 566.01944941 107.88647461 569.6934967 C107.88287947 570.76206474 107.87928433 571.83063279 107.87558025 572.93158168 C107.88230681 577.74364473 108.02201762 582.26593758 109 587 C109.29862331 591.77797304 108.94058458 596.29707711 108 601 C107.67 601 107.34 601 107 601 C105.99568905 589.80675447 105.84739867 578.70222264 105.84178162 567.47341919 C105.83720733 565.52267923 105.83220606 563.57194023 105.82681805 561.62120235 C105.81332617 556.29409568 105.80584475 550.96699534 105.79939139 545.63987613 C105.79134779 539.88273303 105.7776638 534.12560293 105.76467896 528.36846924 C105.7429721 518.40488215 105.72480658 508.44129371 105.70907402 498.47769547 C105.68632245 484.07215829 105.65818708 469.66663554 105.62875474 455.26111065 C105.58114349 431.88680802 105.5378535 408.51249948 105.49731445 385.13818359 C105.45793365 362.43765807 105.41650369 339.73713779 105.37231445 317.03662109 C105.37027066 315.98607373 105.37027066 315.98607373 105.36818558 314.91430318 C105.35449959 307.88061982 105.34077211 300.84693654 105.32701423 293.81325332 C105.29899158 279.48625097 105.27124581 265.15924808 105.2436676 250.83224487 C105.23986846 248.85873268 105.23986846 248.85873268 105.23599256 246.84535156 C105.15279359 203.5635758 105.07656354 160.28178803 105 117 C52.53 116.505 52.53 116.505 -1 116 C-1.04010881 88.4987264 -1.04010881 88.4987264 -1.04882812 76.78710938 C-1.05480874 68.79190355 -1.06188827 60.7967107 -1.07543945 52.80151367 C-1.08629493 46.3565375 -1.09228251 39.91157359 -1.09487724 33.46658897 C-1.09672668 31.00618992 -1.10033808 28.54579156 -1.10573006 26.08539772 C-1.11297572 22.64261035 -1.11398944 19.19987383 -1.11352539 15.75708008 C-1.11712067 14.73712448 -1.12071594 13.71716888 -1.12442017 12.66630554 C-1.1230455 11.72546112 -1.12167084 10.7846167 -1.12025452 9.81526184 C-1.12117631 9.00131864 -1.1220981 8.18737543 -1.12304783 7.34876728 C-0.99060719 4.8207078 -0.55261638 2.46754957 0 0 Z " fill="#131312" transform="translate(135,347)"/>
<path d="M0 0 C0.76956555 -0.00241442 1.5391311 -0.00482883 2.33201683 -0.00731641 C4.91852277 -0.01296588 7.50478311 -0.00428099 10.09127808 0.00431824 C11.94229194 0.00324568 13.79330548 0.00130739 15.64431763 -0.00143433 C20.67713751 -0.00628937 25.70986898 0.00138074 30.74267817 0.01151872 C36.00063131 0.02028621 41.25858157 0.01854204 46.51654053 0.01815796 C55.34517908 0.01909505 64.17378331 0.02778588 73.00241089 0.04142761 C83.22429236 0.05716332 93.44613624 0.06242541 103.66802895 0.06169206 C113.48551783 0.06108273 123.3029944 0.0661788 133.12047958 0.07448387 C137.30628429 0.07802353 141.49208465 0.07984809 145.67789078 0.08037758 C150.60096117 0.08137861 155.52399973 0.08745545 160.44705963 0.09754372 C162.25915456 0.10047617 164.07125316 0.10169259 165.88335037 0.10111618 C168.34609608 0.10062905 170.80875122 0.10624573 173.27148438 0.11352539 C174.36129299 0.11120249 174.36129299 0.11120249 175.47311795 0.10883266 C180.39457979 0.13305941 180.39457979 0.13305941 181.50875854 1.24723816 C181.60652874 3.81442012 181.63870871 6.35467732 181.62901306 8.92230225 C181.6302947 10.14252426 181.6302947 10.14252426 181.63160223 11.38739723 C181.63325952 14.13440057 181.62773161 16.88134389 181.62228394 19.62834167 C181.62200209 21.58905536 181.62215974 23.54976916 181.62272644 25.51048279 C181.62301452 30.8511715 181.61711606 36.19183797 181.61015248 41.53252149 C181.60392073 47.10726132 181.60331529 52.68200161 181.60212708 58.25674438 C181.59901323 68.82129907 181.59079913 79.38584347 181.58077759 89.95039362 C181.56961809 101.97437046 181.56410641 113.99834777 181.55908215 126.0223285 C181.54861656 150.76397077 181.5310161 175.50560389 181.50875854 200.24723816 C181.17875854 200.24723816 180.84875854 200.24723816 180.50875854 200.24723816 C180.17875854 135.23723816 179.84875854 70.22723816 179.50875854 3.24723816 C85.45875854 2.75223816 85.45875854 2.75223816 -10.49124146 2.24723816 C-6.85500193 -0.17692152 -4.20047489 -0.02992117 0 0 Z " fill="#0F0E0E" transform="translate(394.4912414550781,460.7527618408203)"/>
<path d="M0 0 C1.24515381 -0.00571014 2.49030762 -0.01142029 3.77319336 -0.01730347 C5.16064443 -0.01854886 6.54809562 -0.01967395 7.93554688 -0.02069092 C9.39070767 -0.02531805 10.84586724 -0.03034257 12.30102539 -0.03573608 C16.25959222 -0.0488695 20.21814208 -0.05530651 24.17672729 -0.05974674 C26.64752431 -0.06267508 29.11831666 -0.06677936 31.58911133 -0.07125092 C39.31302622 -0.0849264 47.03693047 -0.09459362 54.76085663 -0.09845281 C63.68988319 -0.1029382 72.61875702 -0.12050806 81.54773712 -0.1494534 C88.44202237 -0.17103066 95.33626452 -0.18115491 102.23058319 -0.18249393 C106.35210535 -0.18354452 110.47348396 -0.1895063 114.5949707 -0.20731354 C118.4691421 -0.22372677 122.34306098 -0.22598292 126.21725464 -0.21717453 C127.64192376 -0.21640059 129.0666061 -0.2207935 130.49124146 -0.23063278 C132.43031825 -0.2432436 134.36949535 -0.23572371 136.30859375 -0.22705078 C137.39555542 -0.22851734 138.48251709 -0.2299839 139.60241699 -0.2314949 C140.44453735 -0.10875576 141.28665771 0.01398338 142.15429688 0.14044189 C143.14429688 1.62544189 143.14429688 1.62544189 144.15429688 3.14044189 C94.98429688 3.14044189 45.81429687 3.14044189 -4.84570312 3.14044189 C-4.84570312 63.20044189 -4.84570312 123.26044189 -4.84570312 185.14044189 C-5.17570313 185.14044189 -5.50570312 185.14044189 -5.84570312 185.14044189 C-6.17570313 139.93044189 -6.50570312 94.72044189 -6.84570312 48.14044189 C-7.17570313 48.14044189 -7.50570312 48.14044189 -7.84570312 48.14044189 C-7.84570312 32.63044189 -7.84570312 17.12044189 -7.84570312 1.14044189 C-5.14059106 -0.21211414 -3.02991381 0.00829189 0 0 Z " fill="#484746" transform="translate(723.845703125,460.85955810546875)"/>
<path d="M0 0 C0.66 0 1.32 0 2 0 C3.11778776 12.25079183 3.23497819 24.4770294 3.3515625 36.76953125 C3.37472185 38.94431294 3.39811243 41.11909218 3.42172241 43.29386902 C3.46984592 47.81966831 3.51483505 52.34548506 3.55761719 56.87133789 C3.61287656 62.68443934 3.67666358 68.49741233 3.74279213 74.31039906 C3.79268849 78.78570723 3.83787704 83.26105336 3.88163376 87.7364254 C3.90323746 89.88196084 3.92639047 92.02748124 3.9510994 94.17298317 C3.98477064 97.1528153 4.01205634 100.13263748 4.03759766 103.11254883 C4.04897263 104.0033313 4.0603476 104.89411377 4.07206726 105.81188965 C4.08638962 107.87468326 4.04900087 109.93773874 4 112 C3 113 3 113 0.58119869 113.12304783 C-1.04346144 113.12166514 -1.04346144 113.12166514 -2.70094299 113.12025452 C-3.9391983 113.12162918 -5.17745361 113.12300385 -6.45323181 113.12442017 C-7.83804345 113.12088056 -9.22285485 113.11724574 -10.60766602 113.11352539 C-12.05607094 113.11324352 -13.50447601 113.11340124 -14.95288086 113.1139679 C-18.89692314 113.11425589 -22.84093527 113.1083588 -26.78497052 113.10139394 C-30.90229469 113.09516078 -35.01961948 113.09455663 -39.13694763 113.09336853 C-46.93905862 113.0902551 -54.74115567 113.08204156 -62.54326051 113.07201904 C-71.42340304 113.06085826 -80.30354622 113.05534754 -89.18369401 113.05032361 C-107.45580392 113.03985896 -125.72790084 113.02225929 -144 113 C-144 112.67 -144 112.34 -144 112 C-96.48 112 -48.96 112 0 112 C0 75.04 0 38.08 0 0 Z " fill="#10110F" transform="translate(866,350)"/>
<path d="M0 0 C38.61 0 77.22 0 117 0 C117 40.59 117 81.18 117 123 C91.92 123 66.84 123 41 123 C41 122.67 41 122.34 41 122 C57.28054204 121.02499218 73.50618263 120.87863243 89.8125 120.9375 C92.27018137 120.94253124 94.72786375 120.94709124 97.18554688 120.95117188 C103.12372052 120.9620345 109.0618553 120.97864064 115 121 C114.99907821 120.41192975 114.99815641 119.8238595 114.99720669 119.21796894 C114.97511546 104.90419874 114.95857087 90.59043006 114.94818783 76.27664661 C114.94303312 69.35459086 114.93600612 62.43254649 114.92456055 55.51049805 C114.91352312 48.83210277 114.90771776 42.15372177 114.90512276 35.475317 C114.90327309 32.92560324 114.89966124 30.37589014 114.89426994 27.82618141 C114.88702598 24.25886249 114.88601049 20.69159266 114.88647461 17.12426758 C114.88287933 16.06690903 114.87928406 15.00955048 114.87557983 13.92015076 C114.8769545 12.94564972 114.87832916 11.97114868 114.87974548 10.96711731 C114.87882369 10.12367673 114.8779019 9.28023615 114.87695217 8.41123676 C115 6 115 6 116 1 C77.72 1 39.44 1 0 1 C0 0.67 0 0.34 0 0 Z " fill="#0D0D0C" transform="translate(415,77)"/>
<path d="M0 0 C0.33 0 0.66 0 1 0 C0.67 23.43 0.34 46.86 0 71 C16.09910156 70.96519531 16.09910156 70.96519531 32.5234375 70.9296875 C39.30468845 70.91947385 46.08593387 70.90976376 52.8671875 70.90234375 C63.64129533 70.89046038 74.41537196 70.87646432 85.18945312 70.84912109 C93.03493988 70.82921971 100.8804014 70.81629131 108.72591269 70.81182301 C112.88208934 70.8092101 117.03819381 70.80304668 121.19434738 70.78853989 C125.10291511 70.77500727 129.01138063 70.77076855 132.91996956 70.77378464 C134.35753624 70.77323253 135.79510618 70.7692294 137.23265266 70.76158905 C139.18936848 70.75169589 141.14613862 70.75520932 143.10287476 70.75949097 C144.19980841 70.75764738 145.29674206 70.75580379 146.42691612 70.75390434 C149 71 149 71 151 73 C151.22705078 75.79736328 151.22705078 75.79736328 151.1953125 79.3203125 C151.18564453 81.20556641 151.18564453 81.20556641 151.17578125 83.12890625 C151.15064453 85.10697266 151.15064453 85.10697266 151.125 87.125 C151.11496983 88.46483721 151.10584404 89.80468152 151.09765625 91.14453125 C151.07402075 94.42986573 151.04107234 97.71484465 151 101 C150.67 101 150.34 101 150 101 C148.67280114 94.03220597 148.91174619 87.07011089 149 80 C148.34 80 147.68 80 147 80 C147 78.35 147 76.7 147 75 C142.71 75 138.42 75 134 75 C134 74.34 134 73.68 134 73 C133.31032166 73.00092179 132.62064333 73.00184359 131.91006565 73.00279331 C115.15255288 73.02484801 98.39504468 73.04141129 81.63752079 73.05181217 C73.53381391 73.05697525 65.43011669 73.06401816 57.32641602 73.07543945 C50.26577878 73.08538594 43.20514854 73.09185334 36.14450449 73.09408849 C32.40365542 73.09539566 28.66282638 73.09848189 24.92198372 73.10573006 C20.75274887 73.11374324 16.58354916 73.11399116 12.41430664 73.11352539 C10.54020111 73.1189183 10.54020111 73.1189183 8.62823486 73.12442017 C7.49936356 73.1230455 6.37049225 73.12167084 5.20741272 73.12025452 C4.22017243 73.12117631 3.23293215 73.1220981 2.21577549 73.12304783 C0 73 0 73 -1 72 C-1.09934246 70.01226739 -1.12799501 68.02097474 -1.12939453 66.03076172 C-1.13412277 64.11274246 -1.13412277 64.11274246 -1.13894653 62.15597534 C-1.13715561 60.74721238 -1.13510438 59.33844973 -1.1328125 57.9296875 C-1.13348598 56.4905699 -1.13445637 55.05145241 -1.13571167 53.61233521 C-1.13718941 50.58757449 -1.13503355 47.56284323 -1.13037109 44.53808594 C-1.12470435 40.67468322 -1.12793279 36.81135045 -1.13394356 32.94795036 C-1.13757335 29.97097252 -1.13639898 26.99401098 -1.13381577 24.01703262 C-1.13315158 22.5937817 -1.13395705 21.17052927 -1.13629532 19.74728012 C-1.13885812 17.74672222 -1.13425435 15.74615911 -1.12939453 13.74560547 C-1.12859894 12.60944794 -1.12780334 11.47329041 -1.12698364 10.30270386 C-0.99274491 6.81130305 -0.55100553 3.44820278 0 0 Z " fill="#696765" transform="translate(719,270)"/>
<path d="M0 0 C0.33 0 0.66 0 1 0 C1 4.95 1 9.9 1 15 C47.86 15 94.72 15 143 15 C143.33 16.32 143.66 17.64 144 19 C125.37238885 19.02332793 106.74478065 19.04097865 88.11715794 19.05181217 C79.46864395 19.05697536 70.82013903 19.06401848 62.17163086 19.07543945 C54.63635421 19.08538561 47.10108412 19.09185326 39.56580108 19.09408849 C35.57344148 19.09539572 31.58110064 19.0984823 27.58874702 19.10573006 C23.83532902 19.1124892 20.08193761 19.11461718 16.3285141 19.11310768 C14.94697106 19.11338406 13.56542719 19.11538981 12.18388939 19.11920547 C10.30562855 19.12414099 8.42735362 19.12239796 6.54908752 19.12025452 C5.49547814 19.12117631 4.44186876 19.1220981 3.35633183 19.12304783 C1 19 1 19 0 18 C-0.08631874 16.65732587 -0.10706473 15.31025678 -0.09765625 13.96484375 C-0.09443359 13.15595703 -0.09121094 12.34707031 -0.08789062 11.51367188 C-0.07951172 10.66353516 -0.07113281 9.81339844 -0.0625 8.9375 C-0.05798828 8.08349609 -0.05347656 7.22949219 -0.04882812 6.34960938 C-0.03700373 4.23304337 -0.01906769 2.11651315 0 0 Z " fill="#1E1D1D" transform="translate(241,934)"/>
<path d="M0 0 C2.26399708 0.0018694 4.52799456 0.00329083 6.79199219 0.00428772 C12.69699253 0.00807181 18.60196754 0.01786609 24.50695801 0.0289917 C30.55411436 0.03929506 36.60127487 0.0438043 42.6484375 0.04882812 C54.47396935 0.05949281 66.29948255 0.07651871 78.125 0.09765625 C79.96059935 3.23823033 80.37308277 5.51409108 80.36550903 9.13433838 C80.36963303 10.65713409 80.36963303 10.65713409 80.37384033 12.21069336 C80.3630545 13.87225464 80.3630545 13.87225464 80.35205078 15.56738281 C80.35234283 16.73839539 80.35263489 17.90940796 80.35293579 19.11590576 C80.35154142 22.99010606 80.33597487 26.86411451 80.3203125 30.73828125 C80.31547242 33.42299289 80.31363723 36.10770432 80.31173706 38.79241943 C80.30552266 45.13886067 80.28911239 51.48523294 80.26903808 57.83164382 C80.24667784 65.05770788 80.23568534 72.28377524 80.22564721 79.50986528 C80.20474612 94.37249957 80.16957092 109.23507335 80.125 124.09765625 C79.135 124.59265625 79.135 124.59265625 78.125 125.09765625 C78.125 84.50765625 78.125 43.91765625 78.125 2.09765625 C41.165 2.42765625 4.205 2.75765625 -33.875 3.09765625 C-33.875 3.42765625 -33.875 3.75765625 -33.875 4.09765625 C-40.70579148 5.27990862 -47.00131267 4.84230571 -53.875 4.09765625 C-53.875 3.76765625 -53.875 3.43765625 -53.875 3.09765625 C-51.8764498 2.77601458 -49.8760112 2.46611444 -47.875 2.16015625 C-46.76125 1.98613281 -45.6475 1.81210938 -44.5 1.6328125 C-29.73678142 -0.24951504 -14.85030351 -0.0364064 0 0 Z " fill="#5E5D5B" transform="translate(453.875,74.90234375)"/>
<path d="M0 0 C0.33 0 0.66 0 1 0 C1.495 11.385 1.495 11.385 2 23 C1.34 23 0.68 23 0 23 C0.00222061 23.94991318 0.00444122 24.89982635 0.00672913 25.87852478 C0.02696127 34.81091096 0.04197249 43.74329252 0.05181217 52.67569637 C0.05704082 57.2684264 0.06413812 61.861138 0.07543945 66.45385742 C0.086269 70.88233688 0.09227698 75.31079856 0.09487724 79.73929024 C0.09673137 81.43265628 0.10035175 83.12602129 0.10573006 84.81937981 C0.1129414 87.18291232 0.1139909 89.54637045 0.11352539 91.90991211 C0.11712067 92.61697296 0.12071594 93.32403381 0.12442017 94.05252075 C0.11405216 98.88594784 0.11405216 98.88594784 -1 100 C-2.39143689 100.09543095 -3.78768367 100.12188575 -5.18238831 100.12025452 C-6.53492203 100.12231651 -6.53492203 100.12231651 -7.91477966 100.12442017 C-8.91171341 100.12082489 -9.90864716 100.11722961 -10.93579102 100.11352539 C-11.97956909 100.11367142 -13.02334717 100.11381744 -14.09875488 100.1139679 C-17.56715943 100.11326826 -21.03551103 100.10547353 -24.50390625 100.09765625 C-26.90144318 100.09579225 -29.2989805 100.09436826 -31.69651794 100.09336853 C-38.02095584 100.08954194 -44.34537094 100.07971046 -50.6697998 100.06866455 C-57.11775402 100.05845345 -63.56571191 100.05387156 -70.01367188 100.04882812 C-82.675791 100.03808832 -95.33789429 100.02120119 -108 100 C-108 99.34 -108 98.68 -108 98 C-73.02 98 -38.04 98 -2 98 C-2.03951023 70.52184064 -2.03951023 70.52184064 -2.09008789 43.04370117 C-2.09460449 37.69787598 -2.09460449 37.69787598 -2.09544373 35.18574524 C-2.09696722 33.45205935 -2.10045885 31.71837444 -2.10557556 29.98469543 C-2.17735851 4.35471702 -2.17735851 4.35471702 0 0 Z " fill="#1F1F1E" transform="translate(242,245)"/>
<path d="M0 0 C0.33 0 0.66 0 1 0 C1.08929099 19.31785852 0.80663809 38.62261269 0.5 57.9375 C0.335 68.518125 0.17 79.09875 0 90 C-38.28 90 -76.56 90 -116 90 C-115.505 89.01 -115.505 89.01 -115 88 C-77.38 88 -39.76 88 -1 88 C-1.36788291 63.43862405 -1.36788291 63.43862405 -1.74829102 38.87744141 C-1.81628418 34.09838867 -1.81628418 34.09838867 -1.8467865 31.85238647 C-1.86889951 30.30279457 -1.89323887 28.75323337 -1.91941833 27.20370483 C-2.29709429 4.59418858 -2.29709429 4.59418858 0 0 Z " fill="#141313" transform="translate(576,255)"/>
<path d="M0 0 C1.07610535 -0.02716095 2.15221069 -0.0543219 3.26092529 -0.08230591 C4.62333847 -0.13202797 4.62333847 -0.13202797 6.01327515 -0.18275452 C8.26629639 0.1166687 8.26629639 0.1166687 11.26629639 3.1166687 C-27.34370361 3.1166687 -65.95370361 3.1166687 -105.73370361 3.1166687 C-105.73370361 2.7866687 -105.73370361 2.4566687 -105.73370361 2.1166687 C-93.15841954 1.31194373 -80.62188975 0.92288052 -68.02276611 0.80026245 C-66.19393549 0.77959837 -64.36510861 0.75860021 -62.5362854 0.73728943 C-57.77688909 0.68279215 -53.01745448 0.63312094 -48.25799561 0.58444214 C-44.38642961 0.54401654 -40.51490686 0.50009858 -36.64338112 0.45600796 C-31.97818876 0.40293985 -27.3129804 0.35136313 -22.64776611 0.30026245 C-21.77688984 0.29070463 -20.90601357 0.28114681 -20.0087471 0.27129936 C-15.98309458 0.22773107 -11.95755406 0.18839244 -7.9317627 0.16033936 C-5.28418305 0.13997119 -2.64726381 0.08272023 0 0 Z " fill="#6F6D6A" transform="translate(856.7337036132813,73.88333129882813)"/>
<path d="M0 0 C0.33 0 0.66 0 1 0 C1.04241723 2.33294775 1.04092937 4.66702567 1 7 C0.67 7.33 0.34 7.66 0 8 C-1.13738057 17.07329194 -1.1938657 26.26343294 -1.31640625 35.39453125 C-1.33718735 36.70789963 -1.35796844 38.02126801 -1.37937927 39.37443542 C-1.43382762 42.81836443 -1.4835678 46.26234485 -1.53222656 49.70635986 C-1.58301632 53.23983175 -1.63839819 56.7732316 -1.69335938 60.30664062 C-1.79999183 67.20436435 -1.90163576 74.10215353 -2 81 C-2.66 81 -3.32 81 -4 81 C-4.02327179 72.56737936 -4.04099021 64.13477237 -4.05181217 55.70212746 C-4.05700875 51.78561892 -4.06404713 47.86913252 -4.07543945 43.95263672 C-4.08638382 40.16601726 -4.09230107 36.37941895 -4.09487724 32.59278488 C-4.09671083 31.1552637 -4.10029092 29.71774354 -4.10573006 28.28023148 C-4.18937399 5.23671749 -4.18937399 5.23671749 0 0 Z " fill="#141513" transform="translate(386,258)"/>
<path d="M0 0 C0.33 0 0.66 0 1 0 C0.93148331 0.82726593 0.86296661 1.65453186 0.79237366 2.50686646 C0.0845091 11.60929546 -0.20574614 20.67777584 -0.31640625 29.8046875 C-0.33704891 31.26441944 -0.35804685 32.72414639 -0.37937927 34.18386841 C-0.433847 37.97466927 -0.48357915 41.76551706 -0.53222656 45.55639648 C-0.5830016 49.44519081 -0.63839138 53.33391933 -0.69335938 57.22265625 C-0.80001579 64.81504801 -0.90165498 72.40749554 -1 80 C-1.66 80 -2.32 80 -3 80 C-3.06968359 70.75056972 -3.12290413 61.5012306 -3.15543652 52.25159454 C-3.17105488 47.95604645 -3.19222266 43.6606787 -3.22631836 39.36523438 C-3.25904913 35.2155125 -3.27688179 31.06596349 -3.28463173 26.91612244 C-3.29015072 25.3373696 -3.30092777 23.75862562 -3.31719017 22.1799469 C-3.46782123 6.94364205 -3.46782123 6.94364205 0 0 Z " fill="#161514" transform="translate(719,263)"/>
<path d="M0 0 C0.85207031 0.01353516 1.70414062 0.02707031 2.58203125 0.04101562 C4.63830854 0.07567198 6.6942504 0.12944013 8.75 0.1875 C8.75 0.5175 8.75 0.8475 8.75 1.1875 C0.47049367 3.40522491 -7.72919963 3.79021115 -16.25 4.1875 C-16.25 4.8475 -16.25 5.5075 -16.25 6.1875 C-22.23729887 7.30267502 -28.21251023 8.38250136 -34.25 9.1875 C-34.25 10.1775 -34.25 11.1675 -34.25 12.1875 C-35.24 12.8475 -36.23 13.5075 -37.25 14.1875 C-37.91 13.8575 -38.57 13.5275 -39.25 13.1875 C-39.25 13.8475 -39.25 14.5075 -39.25 15.1875 C-40.57 14.8575 -41.89 14.5275 -43.25 14.1875 C-42.92 13.8575 -42.59 13.5275 -42.25 13.1875 C-43.57 12.5275 -44.89 11.8675 -46.25 11.1875 C-42.50262774 9.90882967 -38.7516463 8.64106976 -35 7.375 C-33.95585937 7.01857422 -32.91171875 6.66214844 -31.8359375 6.29492188 C-21.20583035 2.71874385 -11.29519514 -0.35241009 0 0 Z " fill="#2B2A28" transform="translate(403.25,78.8125)"/>
<path d="M0 0 C4.25414623 -0.02465622 8.50825498 -0.04283899 12.76245117 -0.05493164 C14.21070073 -0.05997101 15.65894517 -0.06680253 17.10717773 -0.07543945 C19.18474588 -0.08752247 21.26224697 -0.09323211 23.33984375 -0.09765625 C24.59144287 -0.10289307 25.84304199 -0.10812988 27.13256836 -0.11352539 C30 0 30 0 31 1 C31.08767112 3.07262076 31.10695873 5.14820294 31.09765625 7.22265625 C31.09443359 8.48271484 31.09121094 9.74277344 31.08789062 11.04101562 C31.07953403 12.38151109 31.07106907 13.72200588 31.0625 15.0625 C31.0574866 16.40689942 31.05292342 17.7513006 31.04882812 19.09570312 C31.03699488 22.39717941 31.02050971 25.69856803 31 29 C30.67 29 30.34 29 30 29 C28.67280114 22.03220597 28.91174619 15.07011089 29 8 C28.34 8 27.68 8 27 8 C27 6.35 27 4.7 27 3 C22.71 3 18.42 3 14 3 C14 2.34 14 1.68 14 1 C9.38 1 4.76 1 0 1 C0 0.67 0 0.34 0 0 Z " fill="#464544" transform="translate(839,342)"/>
<path d="M0 0 C0.33 0 0.66 0 1 0 C1.33 7.59 1.66 15.18 2 23 C1.34 23 0.68 23 0 23 C0 46.76 0 70.52 0 95 C-0.33 95 -0.66 95 -1 95 C-1.02329519 84.68070647 -1.04100189 74.36141932 -1.05181217 64.04210472 C-1.05700373 59.24908893 -1.06403267 54.45609129 -1.07543945 49.66308594 C-1.08640205 45.02706349 -1.09230482 40.39105837 -1.09487724 35.75502396 C-1.09670762 33.99704338 -1.10028116 32.23906363 -1.10573006 30.48109055 C-1.1360994 20.26543278 -0.91679837 10.18282248 0 0 Z " fill="#121312" transform="translate(242,245)"/>
<path d="M0 0 C0.33 0 0.66 0 1 0 C1.08031695 17.7779336 0.84443774 35.54569682 0.53643799 53.32012939 C0.47469307 56.90805726 0.4151919 60.49602238 0.35546875 64.08398438 C0.23910201 71.0560263 0.12036577 78.02802587 0 85 C-0.33 85 -0.66 85 -1 85 C-1.15445804 75.65478779 -1.30263037 66.30950252 -1.4429636 56.96406746 C-1.50833201 52.62377625 -1.57579721 48.2835395 -1.64819336 43.94335938 C-1.71808893 39.74832602 -1.782295 35.55323936 -1.84269524 31.35805893 C-1.86661608 29.76420858 -1.89252486 28.17038668 -1.92053413 26.57660294 C-2.30318961 4.60637922 -2.30318961 4.60637922 0 0 Z " fill="#0C0C0B" transform="translate(576,255)"/>
<path d="M0 0 C1.39530087 0.01199317 2.79052983 0.03533899 4.18551636 0.06729126 C4.94658691 0.07675278 5.70765747 0.08621429 6.49179077 0.09596252 C9.01347545 0.12970577 11.53467502 0.17780244 14.05612183 0.22598267 C15.80202966 0.25214307 17.54795107 0.27741061 19.29388428 0.30181885 C23.89392259 0.36853584 28.49367589 0.44741417 33.09347534 0.52877808 C37.78533979 0.60963391 42.47737166 0.67905395 47.16940308 0.74942017 C56.37923923 0.88923383 65.58881485 1.04188839 74.79830933 1.20254517 C74.79830933 1.53254517 74.79830933 1.86254517 74.79830933 2.20254517 C73.98415054 2.21063202 73.16999176 2.21871887 72.3311615 2.22705078 C64.58092072 2.30565945 56.83085061 2.39313677 49.08081913 2.49007225 C45.09841817 2.53958386 41.11603814 2.58590926 37.1335144 2.62442017 C33.27541891 2.66185401 29.41752107 2.70835241 25.55959892 2.76060867 C24.10278298 2.77884984 22.64592519 2.79406349 21.18904305 2.80588913 C10.60633849 2.89469429 0.28606919 3.78873913 -10.20169067 5.20254517 C-10.20169067 4.54254517 -10.20169067 3.88254517 -10.20169067 3.20254517 C-9.41794067 3.07879517 -8.63419067 2.95504517 -7.82669067 2.82754517 C-4.27424956 1.98172585 -3.81307432 0.24122248 0 0 Z " fill="#5C5B5A" transform="translate(456.2016906738281,198.79745483398438)"/>
<path d="M0 0 C2.1328125 0.3828125 2.1328125 0.3828125 4 1 C3.0919838 2.13199353 2.17316174 3.25532363 1.25 4.375 C0.73953125 5.00148438 0.2290625 5.62796875 -0.296875 6.2734375 C-2.08199481 8.08312318 -3.67949644 9.00117455 -6 10 C-6 10.66 -6 11.32 -6 12 C-6.66 12 -7.32 12 -8 12 C-8 12.66 -8 13.32 -8 14 C-9.98 14.66 -11.96 15.32 -14 16 C-13.67 16.66 -13.34 17.32 -13 18 C-15.31 18.33 -17.62 18.66 -20 19 C-15.9749568 14.8407887 -11.69597429 11.00473683 -7.3671875 7.1640625 C-5.50536026 5.46199601 -3.80793613 3.74609048 -2.125 1.875 C-1.42375 1.25625 -0.7225 0.6375 0 0 Z " fill="#353433" transform="translate(520,808)"/>
<path d="M0 0 C0.33 0 0.66 0 1 0 C1.02937438 3.33331439 1.04692334 6.66659483 1.0625 10 C1.07087891 10.93457031 1.07925781 11.86914062 1.08789062 12.83203125 C1.10708892 18.32274401 0.8134193 23.56866481 0 29 C-0.99 29 -1.98 29 -3 29 C-4.08867051 25.73398848 -3.92813047 24.1484399 -3.4765625 20.78125 C-3.3425 19.76675781 -3.2084375 18.75226562 -3.0703125 17.70703125 C-2.92335938 16.64871094 -2.77640625 15.59039063 -2.625 14.5 C-2.48578125 13.44167969 -2.3465625 12.38335938 -2.203125 11.29296875 C-1.14457289 3.43371868 -1.14457289 3.43371868 0 0 Z " fill="#1F1E1C" transform="translate(715,702)"/>
<path d="M0 0 C0.99 0.66 1.98 1.32 3 2 C-1.03523352 6.81123996 -5.04467233 11.13242719 -10 15 C-10 14.34 -10 13.68 -10 13 C-10.66 13 -11.32 13 -12 13 C-11 11 -11 11 -8 9 C-8 8.01 -8 7.02 -8 6 C-4.66666667 3 -4.66666667 3 -2 3 C-1.34 2.01 -0.68 1.02 0 0 Z " fill="#2D2C2B" transform="translate(647,873)"/>
<path d="M0 0 C2.17515642 3.51635959 2.23948201 6.34982397 2.1875 10.4375 C2.18105469 11.54996094 2.17460938 12.66242187 2.16796875 13.80859375 C2.01836796 16.65100884 1.64625807 19.23401547 1 22 C0.67 22 0.34 22 0 22 C-0.12375 23.134375 -0.2475 24.26875 -0.375 25.4375 C-0.58125 26.613125 -0.7875 27.78875 -1 29 C-1.66 29.33 -2.32 29.66 -3 30 C-2.24770642 8.99082569 -2.24770642 8.99082569 0 0 Z " fill="#323230" transform="translate(574,657)"/>
<path d="M0 0 C0.33 0 0.66 0 1 0 C1.20360061 6.41341915 0.8330287 12.632444 0.125 19 C0.04652832 19.754021 -0.03194336 20.50804199 -0.11279297 21.28491211 C-0.75982215 26.75982215 -0.75982215 26.75982215 -3 29 C-3.26374585 22.21587063 -2.84882501 15.60693381 -2.0625 8.875 C-1.97564941 8.11646729 -1.88879883 7.35793457 -1.79931641 6.57641602 C-1.12899845 1.12899845 -1.12899845 1.12899845 0 0 Z " fill="#1B1A19" transform="translate(580,223)"/>
<path d="M0 0 C-0.55934614 3.75680241 -2.06226996 5.33397113 -4.8125 7.875 C-8.12522235 11.0509313 -10.64441717 14.07402862 -13 18 C-14.125 14.25 -14.125 14.25 -13 12 C-12.34 12.33 -11.68 12.66 -11 13 C-11.33 12.01 -11.66 11.02 -12 10 C-11.34 10 -10.68 10 -10 10 C-9.90589844 9.40703125 -9.81179688 8.8140625 -9.71484375 8.203125 C-8.84054781 5.50857359 -7.73279682 4.53677244 -5.5625 2.75 C-4.94503906 2.22921875 -4.32757813 1.7084375 -3.69140625 1.171875 C-2 0 -2 0 0 0 Z " fill="#302E2D" transform="translate(412,219)"/>
<path d="M0 0 C-3.465 1.485 -3.465 1.485 -7 3 C-7 3.99 -7 4.98 -7 6 C-7.99 6.66 -8.98 7.32 -10 8 C-10.66 7.67 -11.32 7.34 -12 7 C-12 7.66 -12 8.32 -12 9 C-13.32 8.67 -14.64 8.34 -16 8 C-15.67 7.67 -15.34 7.34 -15 7 C-16.32 6.34 -17.64 5.68 -19 5 C-16.21142 3.96995707 -13.41969712 2.95069003 -10.625 1.9375 C-9.8309375 1.64294922 -9.036875 1.34839844 -8.21875 1.04492188 C-7.45820313 0.77099609 -6.69765625 0.49707031 -5.9140625 0.21484375 C-5.2123291 -0.04176025 -4.5105957 -0.29836426 -3.78759766 -0.56274414 C-2 -1 -2 -1 0 0 Z " fill="#464543" transform="translate(376,85)"/>
<path d="M0 0 C0.33 0.66 0.66 1.32 1 2 C-1.11548867 7.81759383 -2.95026542 10.63351028 -8 14 C-8 15.32 -8 16.64 -8 18 C-9.65 18.33 -11.3 18.66 -13 19 C-11.472721 14.35707185 -8.93409202 11.02223041 -5.9375 7.25 C-5.47794922 6.66089844 -5.01839844 6.07179687 -4.54492188 5.46484375 C-1.23028274 1.23028274 -1.23028274 1.23028274 0 0 Z " fill="#4C4B4A" transform="translate(618,144)"/>
<path d="M0 0 C-0.99 0.495 -0.99 0.495 -2 1 C-2 1.66 -2 2.32 -2 3 C-3.65 3.66 -5.3 4.32 -7 5 C-7 5.66 -7 6.32 -7 7 C-10.44450737 9.29633824 -12.93812283 9.54016485 -17 10 C-6.625 -1.00378788 -6.625 -1.00378788 0 0 Z " fill="#3F3D3D" transform="translate(327,109)"/>
<path d="M0 0 C0 0.33 0 0.66 0 1 C-5.94 1.495 -5.94 1.495 -12 2 C-12 2.33 -12 2.66 -12 3 C-18.83079148 4.18225237 -25.12631267 3.74464946 -32 3 C-32 2.67 -32 2.34 -32 2 C-21.23075524 0.06084339 -10.90553195 -0.22256188 0 0 Z " fill="#4B4A48" transform="translate(432,76)"/>
<path d="M0 0 C0.33 0 0.66 0 1 0 C1.09776087 10.38437692 1.1555538 20.66192051 0 31 C-0.66 31 -1.32 31 -2 31 C-2.02685938 28.85423363 -2.04633088 26.70837355 -2.0625 24.5625 C-2.07410156 23.36753906 -2.08570313 22.17257812 -2.09765625 20.94140625 C-2 18 -2 18 -1 17 C-0.76298761 14.14122091 -0.57780818 11.30116703 -0.4375 8.4375 C-0.39431641 7.63119141 -0.35113281 6.82488281 -0.30664062 5.99414062 C-0.20024738 3.99631195 -0.09959112 1.9981793 0 0 Z " fill="#0E0D0D" transform="translate(573,669)"/>
<path d="M0 0 C0.33 0 0.66 0 1 0 C1.99883857 8.46004232 2.44054211 15.1382005 -1 23 C-1.391875 24.175625 -1.78375 25.35125 -2.1875 26.5625 C-2.455625 27.366875 -2.72375 28.17125 -3 29 C-4.44712775 26.1057445 -3.71320823 24.07959274 -3.22265625 20.8984375 C-3.03896484 19.68671875 -2.85527344 18.475 -2.66601562 17.2265625 C-2.46685547 15.95554687 -2.26769531 14.68453125 -2.0625 13.375 C-1.86720703 12.09625 -1.67191406 10.8175 -1.47070312 9.5 C-0.98611091 6.33242159 -0.49563403 3.16586632 0 0 Z " fill="#4F4E4D" transform="translate(570,688)"/>
<path d="M0 0 C-2.94723051 1.96482034 -5.11977826 2.7561217 -8.5 3.6875 C-9.4590625 3.95949219 -10.418125 4.23148438 -11.40625 4.51171875 C-14 5 -14 5 -17 4 C-16.34 3.34 -15.68 2.68 -15 2 C-14.67 1.34 -14.34 0.68 -14 0 C-9.06532787 -1.08562787 -4.94881513 -0.90896604 0 0 Z " fill="#33312F" transform="translate(554,940)"/>
<path d="M0 0 C0.33 0 0.66 0 1 0 C1.625 3.375 1.625 3.375 2 7 C1.34 7.66 0.68 8.32 0 9 C-0.69748583 10.31747324 -1.36959957 11.64914193 -2 13 C-2.66 13 -3.32 13 -4 13 C-4 14.65 -4 16.3 -4 18 C-4.66 18 -5.32 18 -6 18 C-6 18.99 -6 19.98 -6 21 C-6.66 21 -7.32 21 -8 21 C-5.72564796 13.81783567 -2.96415819 6.9241798 0 0 Z " fill="#494746" transform="translate(556,749)"/>
<path d="M0 0 C1.36398513 2.24299778 2.05762059 3.49070833 1.7578125 6.140625 C1.171875 8.09375 0.5859375 10.046875 0 12 C-0.66 12 -1.32 12 -2 12 C-2.12117187 12.63808594 -2.24234375 13.27617187 -2.3671875 13.93359375 C-2.53476563 14.75988281 -2.70234375 15.58617187 -2.875 16.4375 C-3.03742188 17.26121094 -3.19984375 18.08492187 -3.3671875 18.93359375 C-3.57601562 19.61550781 -3.78484375 20.29742187 -4 21 C-4.66 21.33 -5.32 21.66 -6 22 C-4.86299135 14.26534904 -2.89288848 7.26030749 0 0 Z " fill="#3F3F3D" transform="translate(252,200)"/>
<path d="M0 0 C0 0.33 0 0.66 0 1 C-2.31 1 -4.62 1 -7 1 C-7 1.66 -7 2.32 -7 3 C-7.71027344 3.13277344 -8.42054688 3.26554688 -9.15234375 3.40234375 C-10.07144531 3.57894531 -10.99054688 3.75554687 -11.9375 3.9375 C-12.85402344 4.11152344 -13.77054687 4.28554687 -14.71484375 4.46484375 C-16.95289844 4.77714988 -16.95289844 4.77714988 -18 6 C-19.66617115 6.04063832 -21.33388095 6.042721 -23 6 C-22.01 5.67 -21.02 5.34 -20 5 C-20 4.34 -20 3.68 -20 3 C-13.16914355 0.55833216 -7.2484945 -0.41640288 0 0 Z " fill="#141312" transform="translate(453,201)"/>
<path d="M0 0 C0.33 0.66 0.66 1.32 1 2 C1.66 2.33 2.32 2.66 3 3 C2.34 4.65 1.68 6.3 1 8 C0.34 8 -0.32 8 -1 8 C-1.0825 8.61875 -1.165 9.2375 -1.25 9.875 C-2 12 -2 12 -4.046875 13.1328125 C-4.69140625 13.41898438 -5.3359375 13.70515625 -6 14 C-4.45941767 8.98491285 -2.97068161 4.3852919 0 0 Z " fill="#353533" transform="translate(264,173)"/>
<path d="M0 0 C1 2 1 2 0.56274414 3.87939453 C0.30614014 4.62302246 0.04953613 5.36665039 -0.21484375 6.1328125 C-0.48876953 6.93847656 -0.76269531 7.74414062 -1.04492188 8.57421875 C-1.48674805 9.83685547 -1.48674805 9.83685547 -1.9375 11.125 C-2.22818359 11.97449219 -2.51886719 12.82398438 -2.81835938 13.69921875 C-3.53893001 15.80186749 -4.26638315 17.90187477 -5 20 C-5.33 20 -5.66 20 -6 20 C-6 18.02 -6 16.04 -6 14 C-5.34 14 -4.68 14 -4 14 C-4.185625 13.319375 -4.37125 12.63875 -4.5625 11.9375 C-5.08523943 8.42767809 -4.61378577 5.47811937 -4 2 C-3.01 3.485 -3.01 3.485 -2 5 C-1.34 3.35 -0.68 1.7 0 0 Z " fill="#454242" transform="translate(704,773)"/>
<path d="M0 0 C2.3828125 0.0234375 2.3828125 0.0234375 5.125 0.375 C6.03507812 0.48585937 6.94515625 0.59671875 7.8828125 0.7109375 C8.93082031 0.85402344 8.93082031 0.85402344 10 1 C10 1.66 10 2.32 10 3 C4.39 3.66 -1.22 4.32 -7 5 C-7 4.34 -7 3.68 -7 3 C-6.21625 2.87625 -5.4325 2.7525 -4.625 2.625 C-1.85942178 2.20882007 -1.85942178 2.20882007 0 0 Z " fill="#52504F" transform="translate(453,199)"/>
<path d="M0 0 C0.33 0 0.66 0 1 0 C1 8.58 1 17.16 1 26 C0.01 25.34 -0.98 24.68 -2 24 C-2.08421577 21.17576403 -2.00062301 18.60954733 -1.75 15.8125 C-1.69714844 15.06935547 -1.64429688 14.32621094 -1.58984375 13.56054688 C-1.24660788 9.00668498 -0.69339752 4.51306143 0 0 Z " fill="#3B3A39" transform="translate(577,233)"/>
<path d="M0 0 C1 2 1 2 0.4375 4.5 C-1 7 -1 7 -4.125 8.3125 C-5.548125 8.6528125 -5.548125 8.6528125 -7 9 C-6.67 9.66 -6.34 10.32 -6 11 C-8.31 11.33 -10.62 11.66 -13 12 C-8.87675353 7.74790208 -4.48717034 3.86364295 0 0 Z " fill="#464543" transform="translate(513,815)"/>
<path d="M0 0 C1 3 1 3 0.00390625 5.48046875 C-0.47175781 6.37378906 -0.94742187 7.26710937 -1.4375 8.1875 C-1.91058594 9.08855469 -2.38367188 9.98960937 -2.87109375 10.91796875 C-3.24363281 11.60503906 -3.61617188 12.29210937 -4 13 C-4.99 13 -5.98 13 -7 13 C-7 9.16235973 -5.73464665 7.88513915 -3.5 4.8125 C-2.8503125 3.91144531 -2.200625 3.01039063 -1.53125 2.08203125 C-1.0259375 1.39496094 -0.520625 0.70789063 0 0 Z " fill="#454342" transform="translate(277,153)"/>
<path d="M0 0 C0.33 0.66 0.66 1.32 1 2 C1.66 2 2.32 2 3 2 C2.33501617 6.38889325 0.81242323 9.9811485 -1 14 C-2.62433191 11.49923002 -3.07333427 10.41017471 -2.5390625 7.421875 C-2.23742187 6.54015625 -1.93578125 5.6584375 -1.625 4.75 C-1.32851563 3.85796875 -1.03203125 2.9659375 -0.7265625 2.046875 C-0.48679687 1.37140625 -0.24703125 0.6959375 0 0 Z " fill="#2E2D2C" transform="translate(693,796)"/>
<path d="M0 0 C0 0.66 0 1.32 0 2 C2.97 2 5.94 2 9 2 C9 2.33 9 2.66 9 3 C1.08 3 -6.84 3 -15 3 C-15 2.67 -15 2.34 -15 2 C-9.92523206 0.73694665 -5.27203646 -0.27036084 0 0 Z " fill="#494847" transform="translate(736,79)"/>
<path d="M0 0 C0.33 0 0.66 0 1 0 C1 1.65 1 3.3 1 5 C0.34 5 -0.32 5 -1 5 C-0.96519531 5.56847656 -0.93039062 6.13695312 -0.89453125 6.72265625 C-0.69769408 12.33720226 -1.44504683 15.99655005 -4 21 C-4.33 21 -4.66 21 -5 21 C-4.60916979 14.42327096 -3.55820986 9.07574842 -1 3 C-0.67 2.01 -0.34 1.02 0 0 Z " fill="#121110" transform="translate(706,759)"/>
<path d="M0 0 C0.33 1.32 0.66 2.64 1 4 C0.34 4 -0.32 4 -1 4 C-0.67 2.68 -0.34 1.36 0 0 Z M-2 4 C-1.67 4 -1.34 4 -1 4 C-0.875 11.625 -0.875 11.625 -2 15 C-2.99 15 -3.98 15 -5 15 C-4.69078116 13.54096742 -4.37751201 12.08279278 -4.0625 10.625 C-3.88847656 9.81289063 -3.71445312 9.00078125 -3.53515625 8.1640625 C-3 6 -3 6 -2 4 Z " fill="#1E1D1C" transform="translate(699,783)"/>
<path d="M0 0 C0.5625 1.9375 0.5625 1.9375 1 4 C0 5 0 5 -3.16015625 5.09765625 C-5.09181641 5.08025391 -5.09181641 5.08025391 -7.0625 5.0625 C-8.35285156 5.05347656 -9.64320313 5.04445313 -10.97265625 5.03515625 C-11.97167969 5.02355469 -12.97070312 5.01195312 -14 5 C-14 4.34 -14 3.68 -14 3 C-9.71 3 -5.42 3 -1 3 C-0.67 2.01 -0.34 1.02 0 0 Z " fill="#1B1A19" transform="translate(241,340)"/>
<path d="M0 0 C0 0.33 0 0.66 0 1 C-1.30324219 1.39832031 -1.30324219 1.39832031 -2.6328125 1.8046875 C-3.78523438 2.15789062 -4.93765625 2.51109375 -6.125 2.875 C-7.26195312 3.22304687 -8.39890625 3.57109375 -9.5703125 3.9296875 C-12.72751664 4.91496533 -15.86627606 5.94272536 -19 7 C-19.33 5.68 -19.66 4.36 -20 3 C-19.11248047 2.92652344 -19.11248047 2.92652344 -18.20703125 2.8515625 C-11.85746389 2.25078777 -6.36116691 -0.29586823 0 0 Z " fill="#5E5E5A" transform="translate(446,204)"/>
<path d="M0 0 C0.66 0 1.32 0 2 0 C2.33 1.32 2.66 2.64 3 4 C5.97 4 8.94 4 12 4 C11.67 4.66 11.34 5.32 11 6 C7.37 6 3.74 6 0 6 C0 4.02 0 2.04 0 0 Z " fill="#1C1C1B" transform="translate(382,339)"/>
<path d="M0 0 C-5.93891422 2.5915262 -10.54107286 3.40368295 -17 3 C-15.68 2.67 -14.36 2.34 -13 2 C-13 1.34 -13 0.68 -13 0 C-11.58456585 -0.19658808 -10.16755969 -0.38187546 -8.75 -0.5625 C-7.96109375 -0.66691406 -7.1721875 -0.77132812 -6.359375 -0.87890625 C-3.99467126 -1.00027349 -2.2488963 -0.69633257 0 0 Z " fill="#141312" transform="translate(733,82)"/>
<path d="M0 0 C0.66 0 1.32 0 2 0 C0.68 5.28 -0.64 10.56 -2 16 C-2.33 16 -2.66 16 -3 16 C-3.144375 15.2575 -3.28875 14.515 -3.4375 13.75 C-3.90187492 11.47972261 -4.41863569 9.24240521 -5 7 C-3.68 6.67 -2.36 6.34 -1 6 C-0.67 4.02 -0.34 2.04 0 0 Z " fill="#595856" transform="translate(390,249)"/>
<path d="M0 0 C3 0 3 0 7 2 C4.36 3.98 1.72 5.96 -1 8 C-1.66 7.01 -2.32 6.02 -3 5 C-2.34 4.67 -1.68 4.34 -1 4 C-0.34 4.33 0.32 4.66 1 5 C1 4.34 1 3.68 1 3 C0.01 2.67 -0.98 2.34 -2 2 C-1.34 1.34 -0.68 0.68 0 0 Z " fill="#3A3936" transform="translate(745,215)"/>
<path d="M0 0 C1.57649053 3.15298105 0.37317242 6.18022856 -0.3125 9.5 C-0.44333984 10.18964844 -0.57417969 10.87929687 -0.70898438 11.58984375 C-1.75008585 16.75008585 -1.75008585 16.75008585 -4 19 C-4.18043455 13.76739811 -3.97114099 9.92785247 -2 5 C-1.62875 4.05125 -1.2575 3.1025 -0.875 2.125 C-0.58625 1.42375 -0.2975 0.7225 0 0 Z " fill="#131210" transform="translate(250,211)"/>
<path d="M0 0 C0 0.66 0 1.32 0 2 C-1.32 2.33 -2.64 2.66 -4 3 C-3.34 3.66 -2.68 4.32 -2 5 C-6.33273814 5.92844389 -9.66726186 5.92844389 -14 5 C-11.56585763 3.37723842 -9.68680554 2.38255208 -7 1.375 C-6.319375 1.11460938 -5.63875 0.85421875 -4.9375 0.5859375 C-3 0 -3 0 0 0 Z " fill="#5A5856" transform="translate(707,86)"/>
<path d="M0 0 C0 3 0 3 -1 7 C-3.97 7 -6.94 7 -10 7 C-6.77085357 3.77085357 -3.97169202 2.17318997 0 0 Z " fill="#434342" transform="translate(499,827)"/>
<path d="M0 0 C6.93 0.495 6.93 0.495 14 1 C14 1.33 14 1.66 14 2 C8.39 2.99 2.78 3.98 -3 5 C-3 4.34 -3 3.68 -3 3 C-1.35 3 0.3 3 2 3 C2 2.34 2 1.68 2 1 C1.34 0.67 0.68 0.34 0 0 Z " fill="#62605E" transform="translate(776,201)"/>
<path d="M0 0 C0.33 0 0.66 0 1 0 C2.35744681 7.40425532 2.35744681 7.40425532 0.6875 10.1875 C0.130625 10.785625 -0.42625 11.38375 -1 12 C-1.71162443 13.64797236 -2.39031953 15.31165408 -3 17 C-4.6168484 13.76630321 -3.00851816 10.69371743 -2.0625 7.375 C-1.76956055 6.31539062 -1.76956055 6.31539062 -1.47070312 5.234375 C-0.98685508 3.48780156 -0.49424877 1.74365876 0 0 Z " fill="#4B4B48" transform="translate(563,726)"/>
<path d="M0 0 C0 0.66 0 1.32 0 2 C-1.65 2 -3.3 2 -5 2 C-5 2.66 -5 3.32 -5 4 C-7.64 4.33 -10.28 4.66 -13 5 C-8.22381734 1.10364046 -6.19598355 -0.13469529 0 0 Z " fill="#161514" transform="translate(778,202)"/>
<path d="M0 0 C0.33 0 0.66 0 1 0 C1 1.98 1 3.96 1 6 C-0.32 6.33 -1.64 6.66 -3 7 C-3.33 8.65 -3.66 10.3 -4 12 C-4.66 12 -5.32 12 -6 12 C-4.68315519 7.39104317 -2.84801255 3.85859765 0 0 Z " fill="#545352" transform="translate(604,163)"/>
<path d="M0 0 C0 1.32 0 2.64 0 4 C-3.96 4.66 -7.92 5.32 -12 6 C-11.67 5.34 -11.34 4.68 -11 4 C-9.68 4 -8.36 4 -7 4 C-7 3.01 -7 2.02 -7 1 C-2.25 0 -2.25 0 0 0 Z " fill="#3A3837" transform="translate(720,82)"/>
<path d="M0 0 C0 0.66 0 1.32 0 2 C-0.99 2.66 -1.98 3.32 -3 4 C-3.33 4.33 -3.66 4.66 -4 5 C-6.33297433 5.04092937 -8.66705225 5.04241723 -11 5 C-11.33 4.34 -11.66 3.68 -12 3 C-10.37604003 2.49663233 -8.75079459 1.99741024 -7.125 1.5 C-6.22007812 1.2215625 -5.31515625 0.943125 -4.3828125 0.65625 C-2 0 -2 0 0 0 Z " fill="#3F3D3C" transform="translate(468,843)"/>
<path d="M0 0 C0.33 1.32 0.66 2.64 1 4 C-0.9375 6.75 -0.9375 6.75 -3 9 C-4.32 8.34 -5.64 7.68 -7 7 C-4.69 4.69 -2.38 2.38 0 0 Z " fill="#373735" transform="translate(297,130)"/>
<path d="M0 0 C0.66 0.33 1.32 0.66 2 1 C0.68 2.32 -0.64 3.64 -2 5 C-1.67 5.66 -1.34 6.32 -1 7 C-1.66 7 -2.32 7 -3 7 C-3.33 7.99 -3.66 8.98 -4 10 C-5.32 9.34 -6.64 8.68 -8 8 C-5.36 5.36 -2.72 2.72 0 0 Z " fill="#545352" transform="translate(636,125)"/>
<path d="M0 0 C3 1 3 1 5 3 C-1.75 7 -1.75 7 -4 7 C-3.67 5.68 -3.34 4.36 -3 3 C-2.01 3 -1.02 3 0 3 C0 2.01 0 1.02 0 0 Z " fill="#434341" transform="translate(585,922)"/>
<path d="M0 0 C0.99 0.33 1.98 0.66 3 1 C1.84414715 4.91211733 0.64465038 7.8745041 -2 11 C-2.6875 8.75 -2.6875 8.75 -3 6 C-1.5625 3.8125 -1.5625 3.8125 0 2 C0 1.34 0 0.68 0 0 Z " fill="#343433" transform="translate(686,813)"/>
<path d="M0 0 C0.33 1.32 0.66 2.64 1 4 C0.34 4 -0.32 4 -1 4 C-1.0825 4.556875 -1.165 5.11375 -1.25 5.6875 C-2.22610013 8.69714206 -3.95188814 10.62154752 -6 13 C-6 11.68 -6 10.36 -6 9 C-5.34 9 -4.68 9 -4 9 C-4 8.01 -4 7.02 -4 6 C-3.34 6 -2.68 6 -2 6 C-2 4.35 -2 2.7 -2 1 C-1.34 0.67 -0.68 0.34 0 0 Z " fill="#131311" transform="translate(554,761)"/>
<path d="M0 0 C0.66 0 1.32 0 2 0 C1.44854729 5.23880078 0.57077907 9.97350697 -1 15 C-1.33 15 -1.66 15 -2 15 C-2 12.36 -2 9.72 -2 7 C-1.34 7 -0.68 7 0 7 C-0.185625 6.030625 -0.37125 5.06125 -0.5625 4.0625 C-0.706875 3.051875 -0.85125 2.04125 -1 1 C-0.67 0.67 -0.34 0.34 0 0 Z " fill="#393939" transform="translate(707,757)"/>
<path d="M0 0 C0.99 0.33 1.98 0.66 3 1 C2.88529863 2.75070517 2.75780972 4.50057536 2.625 6.25 C2.55539062 7.22453125 2.48578125 8.1990625 2.4140625 9.203125 C2 12 2 12 0 16 C0 10.72 0 5.44 0 0 Z " fill="#3F3E3E" transform="translate(709,741)"/>
<path d="M0 0 C0.90105469 0.00902344 1.80210937 0.01804688 2.73046875 0.02734375 C3.41753906 0.03894531 4.10460937 0.05054688 4.8125 0.0625 C2.1264714 1.85318573 0.1498411 2.72305791 -2.875 3.6875 C-4.08736328 4.07808594 -4.08736328 4.07808594 -5.32421875 4.4765625 C-5.93910156 4.66992188 -6.55398438 4.86328125 -7.1875 5.0625 C-7.5175 3.7425 -7.8475 2.4225 -8.1875 1.0625 C-5.17259443 0.05753148 -3.14568308 -0.04085303 0 0 Z " fill="#5D5C5A" transform="translate(768.1875,205.9375)"/>
<path d="M0 0 C0.66 0.33 1.32 0.66 2 1 C-0.97 3.97 -3.94 6.94 -7 10 C-7.33 9.01 -7.66 8.02 -8 7 C-6.71034824 5.62437146 -5.37310707 4.29233607 -4 3 C-3.34 3 -2.68 3 -2 3 C-2 2.34 -2 1.68 -2 1 C-1.34 0.67 -0.68 0.34 0 0 Z " fill="#161514" transform="translate(310,120)"/>
<path d="M0 0 C0.66 0.33 1.32 0.66 2 1 C0.98565881 3.53585299 0.34981128 4.78136795 -2 6.25 C-4.94228855 7.35335821 -5.94386042 7.01871319 -9 6 C-6.03 4.02 -3.06 2.04 0 0 Z " fill="#585856" transform="translate(660,107)"/>
<path d="M0 0 C1.65 0 3.3 0 5 0 C1.7129243 3.81300782 -1.39727838 5.22972246 -6 7 C-6 6.34 -6 5.68 -6 5 C-5.34 5 -4.68 5 -4 5 C-3.67 4.01 -3.34 3.02 -3 2 C-2.34 2.33 -1.68 2.66 -1 3 C-0.67 2.01 -0.34 1.02 0 0 Z " fill="#575654" transform="translate(596,917)"/>
<path d="M0 0 C0.33 0 0.66 0 1 0 C1.04241723 2.33294775 1.04092937 4.66702567 1 7 C0.67 7.33 0.34 7.66 0 8 C-0.36760731 10.32817964 -0.70241581 12.6618385 -1 15 C-1.33 15 -1.66 15 -2 15 C-2.05429959 13.25034642 -2.09292823 11.50020213 -2.125 9.75 C-2.15980469 8.28820312 -2.15980469 8.28820312 -2.1953125 6.796875 C-1.99862781 3.9803502 -1.44568916 2.39050964 0 0 Z " fill="#10100E" transform="translate(386,258)"/>
<path d="M0 0 C0.99 0.99 1.98 1.98 3 3 C2.34 5.31 1.68 7.62 1 10 C-1.41793589 8.79103206 -1.79103206 8.41793589 -3 6 C-2.06553465 3.96855359 -1.06775224 1.96466413 0 0 Z " fill="#474746" transform="translate(595,178)"/>
<path d="M0 0 C-2.90572328 2.47524576 -5.15822926 3.69670231 -9 4 C-9.66 3.34 -10.32 2.68 -11 2 C-4.75 -1.125 -4.75 -1.125 0 0 Z " fill="#444342" transform="translate(581,929)"/>
<path d="M0 0 C0.99 0.33 1.98 0.66 3 1 C0.69 3.31 -1.62 5.62 -4 8 C-4.33 6.68 -4.66 5.36 -5 4 C-2.6875 1.9375 -2.6875 1.9375 0 0 Z " fill="#403F3D" transform="translate(634,888)"/>
<path d="M0 0 C0.33 0 0.66 0 1 0 C1 1.65 1 3.3 1 5 C0.34 5 -0.32 5 -1 5 C-1.33 6.98 -1.66 8.96 -2 11 C-2.66 11 -3.32 11 -4 11 C-3.39301257 6.87248551 -1.96189209 3.6678852 0 0 Z " fill="#1A1917" transform="translate(391,244)"/>
<path d="M0 0 C2.00720923 0.28674418 4.0085944 0.61866701 6 1 C3.14693203 3.32472205 0.45925163 4.7508258 -3 6 C-1.125 1.125 -1.125 1.125 0 0 Z " fill="#52514F" transform="translate(755,210)"/>
<path d="M0 0 C0.99 0 1.98 0 3 0 C2.1875 1.9375 2.1875 1.9375 1 4 C0.01 4.33 -0.98 4.66 -2 5 C-3.20882096 7.00016466 -3.20882096 7.00016466 -4 9 C-4.33 8.01 -4.66 7.02 -5 6 C-2.75 2.8125 -2.75 2.8125 0 0 Z " fill="#1B1919" transform="translate(628,134)"/>
<path d="M0 0 C-0.66 1.65 -1.32 3.3 -2 5 C-6.455 5.495 -6.455 5.495 -11 6 C-7.92832129 2.92832129 -4.55956968 0 0 0 Z " fill="#615F5D" transform="translate(678,98)"/>
<path d="M0 0 C0.33 1.32 0.66 2.64 1 4 C-1.64 4.33 -4.28 4.66 -7 5 C-7 4.01 -7 3.02 -7 2 C-2.25 0 -2.25 0 0 0 Z " fill="#3C3B39" transform="translate(383,82)"/>
<path d="M0 0 C2.05078125 0.03255208 4.1015625 0.06510417 6.15234375 0.09765625 C1.31588077 3.32196491 -1.11705609 3.19008528 -6.84765625 3.09765625 C-6.20828125 2.78828125 -5.56890625 2.47890625 -4.91015625 2.16015625 C-0.79887576 0.04222388 -0.79887576 0.04222388 0 0 Z " fill="#151312" transform="translate(535.84765625,941.90234375)"/>
<path d="M0 0 C0.99 0.66 1.98 1.32 3 2 C-1.75 6 -1.75 6 -4 6 C-4.33 5.01 -4.66 4.02 -5 3 C-3.35 2.01 -1.7 1.02 0 0 Z " fill="#413F3E" transform="translate(608,909)"/>
<path d="M0 0 C-2.85306797 2.32472205 -5.54074837 3.7508258 -9 5 C-6.96456769 -0.67013285 -5.87860125 -1.3923003 0 0 Z " fill="#464645" transform="translate(427,211)"/>
<path d="M0 0 C0.33 0 0.66 0 1 0 C1.74926071 3.66305234 2.2380014 6.42355152 1 10 C0.01 10 -0.98 10 -2 10 C-1.54177532 6.53058454 -1.10868317 3.32604951 0 0 Z " fill="#454442" transform="translate(586,199)"/>
<path d="M0 0 C0 0.66 0 1.32 0 2 C-0.639375 2.268125 -1.27875 2.53625 -1.9375 2.8125 C-4.33131686 3.88667752 -4.33131686 3.88667752 -5 7 C-7.475 6.01 -7.475 6.01 -10 5 C-3.63636364 0 -3.63636364 0 0 0 Z " fill="#5C5C5A" transform="translate(688,93)"/>
<path d="M0 0 C0 0.66 0 1.32 0 2 C-0.639375 2.268125 -1.27875 2.53625 -1.9375 2.8125 C-4.33131686 3.88667752 -4.33131686 3.88667752 -5 7 C-7.475 6.01 -7.475 6.01 -10 5 C-3.63636364 0 -3.63636364 0 0 0 Z " fill="#646462" transform="translate(352,93)"/>
<path d="M0 0 C1.98 0 3.96 0 6 0 C6 0.66 6 1.32 6 2 C3.03 2.66 0.06 3.32 -3 4 C-3 3.34 -3 2.68 -3 2 C-2.01 2 -1.02 2 0 2 C0 1.34 0 0.68 0 0 Z " fill="#141414" transform="translate(693,91)"/>
<path d="M0 0 C-3.28463659 2.18975773 -6.20696275 2.99806563 -10 4 C-9.625 2.0625 -9.625 2.0625 -9 0 C-5.93109813 -1.53445094 -3.29905734 -0.54984289 0 0 Z " fill="#42423D" transform="translate(565,936)"/>
<path d="M0 0 C0.99 0.66 1.98 1.32 3 2 C1.35 3.98 -0.3 5.96 -2 8 C-2.6875 6.25 -2.6875 6.25 -3 4 C-1.5625 1.75 -1.5625 1.75 0 0 Z " fill="#373734" transform="translate(647,873)"/>
<path d="M0 0 C0.99 0.33 1.98 0.66 3 1 C1.7508258 4.45925163 0.32472205 7.14693203 -2 10 C-2.6875 8.25 -2.6875 8.25 -3 6 C-1.5625 3.875 -1.5625 3.875 0 2 C0 1.34 0 0.68 0 0 Z " fill="#383736" transform="translate(679,827)"/>
<path d="M0 0 C1.125 1.75 1.125 1.75 2 4 C1.375 6.1875 1.375 6.1875 0 8 C-2.125 8.75 -2.125 8.75 -4 9 C-2.80100302 5.9168649 -1.52299523 2.93720508 0 0 Z " fill="#454140" transform="translate(547,770)"/>
<path d="M0 0 C0.33 0 0.66 0 1 0 C1 2.31 1 4.62 1 7 C0.34 7 -0.32 7 -1 7 C-1.33 8.32 -1.66 9.64 -2 11 C-2.25 3.375 -2.25 3.375 0 0 Z " fill="#151413" transform="translate(722,251)"/>
<path d="M0 0 C0.99 0 1.98 0 3 0 C1.84414715 3.91211733 0.64465038 6.8745041 -2 10 C-2.33 8.35 -2.66 6.7 -3 5 C-2.01 5 -1.02 5 0 5 C-0.2784375 4.0409375 -0.2784375 4.0409375 -0.5625 3.0625 C-0.706875 2.381875 -0.85125 1.70125 -1 1 C-0.67 0.67 -0.34 0.34 0 0 Z " fill="#474746" transform="translate(394,238)"/>
<path d="M0 0 C0.99 0 1.98 0 3 0 C1.84414715 3.91211733 0.64465038 6.8745041 -2 10 C-2 8.35 -2 6.7 -2 5 C-1.34 5 -0.68 5 0 5 C-0.2784375 4.0409375 -0.2784375 4.0409375 -0.5625 3.0625 C-0.7790625 2.0415625 -0.7790625 2.0415625 -1 1 C-0.67 0.67 -0.34 0.34 0 0 Z " fill="#403F3D" transform="translate(728,238)"/>
<path d="M0 0 C1.9375 0.375 1.9375 0.375 4 1 C4.33 1.66 4.66 2.32 5 3 C4.01 3.33 3.02 3.66 2 4 C0.33289654 5.49985609 0.33289654 5.49985609 -1 7 C-1.33 5.35 -1.66 3.7 -2 2 C-1.34 2 -0.68 2 0 2 C0 1.34 0 0.68 0 0 Z " fill="#22211F" transform="translate(342,98)"/>
<path d="M0 0 C0.66 1.32 1.32 2.64 2 4 C-1.375 4.625 -1.375 4.625 -5 5 C-5.66 4.34 -6.32 3.68 -7 3 C-4.69 2.01 -2.38 1.02 0 0 Z " fill="#3D3B3A" transform="translate(483,836)"/>
<path d="M0 0 C0.33 0.99 0.66 1.98 1 3 C0.34 3 -0.32 3 -1 3 C-1.33 5.31 -1.66 7.62 -2 10 C-2.66 10 -3.32 10 -4 10 C-3.43454163 6.04179141 -2.19097652 3.3340947 0 0 Z " fill="#151413" transform="translate(727,240)"/>
<path d="M0 0 C0.99 0.33 1.98 0.66 3 1 C1.70700306 3.88437779 0.34058637 5.87219421 -2 8 C-2.33 7.01 -2.66 6.02 -3 5 C-1.5625 2.875 -1.5625 2.875 0 1 C0 0.67 0 0.34 0 0 Z " fill="#353632" transform="translate(656,862)"/>
<path d="M0 0 C0.33 0.99 0.66 1.98 1 3 C0.34 3 -0.32 3 -1 3 C-1.33 3.99 -1.66 4.98 -2 6 C-4.0625 6.6875 -4.0625 6.6875 -6 7 C-5.67 5.68 -5.34 4.36 -5 3 C-3.35 2.67 -1.7 2.34 0 2 C0 1.34 0 0.68 0 0 Z " fill="#30302F" transform="translate(547,776)"/>
<path d="M0 0 C0.99 0.66 1.98 1.32 3 2 C3 2.66 3 3.32 3 4 C-0.465 5.485 -0.465 5.485 -4 7 C-2.92598892 4.08482708 -2.22189824 2.22189824 0 0 Z " fill="#4A4A49" transform="translate(282,146)"/>
<path d="M0 0 C0.33 1.32 0.66 2.64 1 4 C-2.1964086 5.06546953 -4.65747276 5.07427838 -8 5 C-5.44008376 2.98863724 -2.95409701 1.37154504 0 0 Z " fill="#595856" transform="translate(341,98)"/>
<path d="M0 0 C0.99 0.33 1.98 0.66 3 1 C1.92598892 3.91517292 1.22189824 5.77810176 -1 8 C-1.625 5.6875 -1.625 5.6875 -2 3 C-1.34 2.01 -0.68 1.02 0 0 Z " fill="#4E4C4B" transform="translate(674,836)"/>
<path d="M0 0 C1.485 0.99 1.485 0.99 3 2 C2.67 5.3 2.34 8.6 2 12 C1.67 12 1.34 12 1 12 C0.67 8.04 0.34 4.08 0 0 Z " fill="#3C3A39" transform="translate(711,730)"/>
<path d="M0 0 C1.32 0.33 2.64 0.66 4 1 C1.69 3.31 -0.62 5.62 -3 8 C-3 4.42424104 -1.91159393 2.94704065 0 0 Z " fill="#6F6E6D" transform="translate(408,221)"/>
<path d="M0 0 C0.33 0 0.66 0 1 0 C1.22174933 1.45635371 1.42698698 2.91522956 1.625 4.375 C1.74101563 5.18710938 1.85703125 5.99921875 1.9765625 6.8359375 C1.98429688 7.55007812 1.99203125 8.26421875 2 9 C1.34 9.66 0.68 10.32 0 11 C-1.28571429 3.57142857 -1.28571429 3.57142857 0 0 Z " fill="#323130" transform="translate(581,216)"/>
<path d="M0 0 C1.32 0.66 2.64 1.32 4 2 C2.02 3.32 0.04 4.64 -2 6 C-2.33 5.01 -2.66 4.02 -3 3 C-2.01 2.01 -1.02 1.02 0 0 Z " fill="#3E3D3C" transform="translate(414,215)"/>
<path d="M0 0 C0.95904856 3.83619425 0.91892116 5.32431536 0 9 C-0.99 9 -1.98 9 -3 9 C-2.01 6.03 -1.02 3.06 0 0 Z " fill="#434241" transform="translate(257,187)"/>
<path d="M0 0 C-6.75 4 -6.75 4 -9 4 C-8 1 -8 1 -6.1875 -0.25 C-3.66056586 -1.11637742 -2.47778006 -0.88492145 0 0 Z " fill="#191A19" transform="translate(675,103)"/>
<path d="M0 0 C1.485 0.99 1.485 0.99 3 2 C2.25 6.75 2.25 6.75 0 9 C-0.84454356 5.62182575 -1.10844919 3.32534757 0 0 Z " fill="#403E3D" transform="translate(691,801)"/>
<path d="M0 0 C0.66 1.32 1.32 2.64 2 4 C0.625 5.5 0.625 5.5 -1 7 C-1.66 7 -2.32 7 -3 7 C-1.125 2.25 -1.125 2.25 0 0 Z " fill="#3F3F3C" transform="translate(268,166)"/>
</svg>
